<svg width="32" height="32" viewBox="0 0 32 32" fill="none" xmlns="http://www.w3.org/2000/svg">
<path d="M13.8761 8.38095C13.8761 11.87 10.9043 14.7381 7.18807 14.7381C3.47188 14.7381 0.5 11.87 0.5 8.38095C0.5 4.89194 3.47188 2.0238 7.18807 2.0238C10.9043 2.0238 13.8761 4.89194 13.8761 8.38095Z" stroke="black"/>
<path d="M20.501 1.87713L30.947 7.65804L20.476 13.3976L20.501 1.87713Z" stroke="black"/>
<path d="M0.72437 25.1429L7.18807 18.9767L13.6518 25.1429L7.18807 31.309L0.72437 25.1429Z" stroke="black"/>
<path d="M17.5708 19.0476H18.3695M31.9469 19.0476H31.1483M31.1483 19.0476V31.2381M31.1483 19.0476H18.3695M31.1483 32V31.2381M31.1483 31.2381H18.3695M17.5708 31.2381H18.3695M18.3695 31.2381V19.0476" stroke="black"/>
</svg>
