<svg width="33" height="33" viewBox="0 0 33 33" fill="none" xmlns="http://www.w3.org/2000/svg">
<path d="M22 20.6451H4M8 17.5483V25.8064M4 24.7741H13M18 24.7741H13M13 24.7741V30.9677H10M4 27.8709H8V32H4V27.8709Z" stroke="black"/>
<path d="M3 0V2.06452M3 2.06452V6.19355M3 2.06452H11M25 2.06452H23M23 2.06452V7.22581H20M23 2.06452H11M20 7.22581V11.3548M20 7.22581L17 6.19355V3.09677M20 11.3548L17 12.3871V14.4516H15M20 11.3548L23 12.3871V14.4516H25M3 6.19355V14.4516H7M3 6.19355H7M11 6.19355V2.06452M11 6.19355V10.3226M11 6.19355H7M8 17.5484V16.5161H11V14.4516M11 10.3226H0M11 10.3226V14.4516M11 10.3226H14M11 14.4516H7M7 6.19355V14.4516" stroke="black"/>
<path d="M20 26.8387H32M32 26.8387L26 21.6774M32 26.8387L26 31.9999" stroke="black"/>
</svg>
