<svg width="34" height="34" viewBox="0 0 34 34" fill="none" xmlns="http://www.w3.org/2000/svg">
<path d="M15.5452 7.78284L18.4542 9.8177M29.3631 12.5308H24.9995M6.09082 12.5308H11.1816M11.1816 12.5308C15.1146 21.0588 19.2495 24.0276 29.3631 26.7748M11.1816 12.5308H24.9995M24.9995 12.5308C22.0726 18.1364 19.3019 20.3244 13.3634 23.3834" stroke="black"/>
<path d="M33.0001 12.53V5.74719C33.0001 1.5 26 5.5 25.5 6L21.3633 9.13946M21.3633 9.13946L22.0905 1M21.3633 9.13946L30.0904 9.13943" stroke="#2453DE"/>
<path d="M1.13929 21.3485L1.13929 29C1.13929 32.5 8.5 28 9 27.5L12.7345 24.8611M12.7345 24.8611L11.909 32.9924M12.7345 24.8611L4.00792 24.7695" stroke="#2453DE"/>
</svg>
