<svg width="34" height="34" viewBox="0 0 34 34" fill="none" xmlns="http://www.w3.org/2000/svg">
<path d="M21.2105 3.1739C16.4267 -1.26507 14.7141 1.03667 12.7895 10.6073M12.7895 10.6073C8.85703 27.2003 6.71161 37.2418 1 31.2557M12.7895 10.6073H17.8421M12.7895 10.6073H6.89474M32.1579 15.5629L26.2632 21.7574M20.3684 27.9519L26.2632 21.7574M26.2632 21.7574L22.0526 13.9111M26.2632 21.7574L30.4737 27.9519M28.7895 11.7371C28.7413 11.7371 28.6937 11.7372 28.6467 11.7372M28.6467 11.7372C27.1053 11.7371 25.4211 11.723 25.4211 9.25934C25.4211 7.60747 26.7145 6.78154 28.7895 6.78154C30.8644 6.78154 33 6.78154 33 9.25934C33 11.7371 30.4737 11.7371 28.6467 11.7372Z" stroke="black"/>
</svg>
