<svg width="34" height="34" viewBox="0 0 34 34" fill="none" xmlns="http://www.w3.org/2000/svg">
<path d="M33 14.3333V10.7778" stroke="black"/>
<path d="M33 7.22222V1H27.1053M23.7368 1H18.6842M15.3158 1H10.2632M6.89474 1H1V7.22222M1 10.7778V14.3333M1 17.8889V21.4444M1 25V31.2222H6.89474M10.2632 31.2222H13.6316" stroke="black"/>
<path d="M29.6315 18.7778V13.4445H17.8421V18.7778M29.6315 18.7778H32.9999V27.6667H29.6315M29.6315 18.7778H17.8421M29.6315 27.6667V33H17.8421V27.6667M29.6315 27.6667V24.1111H17.8421V27.6667M17.8421 27.6667H14.4736V18.7778H17.8421" stroke="black"/>
</svg>
