<svg width="34" height="36" viewBox="0 0 34 36" fill="none" xmlns="http://www.w3.org/2000/svg">
<path d="M15.2221 9C15.2222 4.55556 11.6668 1 16.1114 1C20.5559 1 17.0003 1 20.5557 1C24.1111 1 20.5554 5.44444 20.5555 9" stroke="black"/>
<path d="M15.2222 9V11.6667H2.77778V17H4.55556M7.22222 17H4.55556M4.55556 17V21.4444V25.8889V27.6667L2.77778 31.2222H1V34.7778H29.4444V29.4444H31.2222V17M31.2222 17H28.5556M31.2222 17H33V11.6667H20.5556V9" stroke="black"/>
<path d="M22.3334 33.8889V31.2222H24.1112V25.8889" stroke="black"/>
<path d="M10 17H25.5" stroke="#C5591C"/>
</svg>
