<svg fill="#000000" version="1.1" id="Capa_1" xmlns="http://www.w3.org/2000/svg" xmlns:xlink="http://www.w3.org/1999/xlink" 
	 width="800px" height="800px" viewBox="0 0 210.643 210.643"
	 xml:space="preserve">
<g>
	<path d="M88.682,137.728c-1.033,1.03-1.906,2.228-2.597,3.562l-19.616,37.903c-1.764,3.405-2.099,7.286-0.939,10.931
		c1.16,3.651,3.672,6.629,7.072,8.388c2.043,1.062,4.327,1.615,6.611,1.615c3.819,0,7.413-1.492,10.118-4.195
		c1.033-1.033,1.906-2.231,2.596-3.56l19.619-37.903c1.766-3.408,2.094-7.289,0.931-10.938c-1.163-3.647-3.676-6.632-7.075-8.395
		C99.955,132.318,93.002,133.395,88.682,137.728z"/>
	<path d="M78.597,132.047l-1.056,2.196l-20.415,40.122c-6.298,12.166-1.524,27.186,10.641,33.482
		c3.527,1.827,7.473,2.789,11.415,2.789c9.332,0,17.793-5.147,22.08-13.433l19.62-37.9c3.056-5.899,3.627-12.631,1.615-18.951
		c-2.013-6.328-6.365-11.488-12.262-14.538c-2.122-1.102-4.352-1.875-6.656-2.319l3.578-5.127l101.499-48.646
		c1.349-0.643,2.132-2.074,1.965-3.562c-0.131-1.129-3.389-27.702-19.855-27.702c-2.563,0-5.284,0.683-8.073,2.033
		c-0.168,0.08-0.328,0.174-0.479,0.28l-40.759,28.426l28.429-40.758c0.105-0.154,0.201-0.312,0.28-0.481
		c3.268-6.752,1.971-11.777,0.305-14.804c-5.773-10.506-23.928-12.886-25.981-13.121c-1.481-0.19-2.916,0.616-3.559,1.966
		L92.277,103.498l-5.13,3.578c-0.445-2.31-1.224-4.555-2.31-6.658c-4.29-8.285-12.752-13.436-22.086-13.436
		c-3.942,0-7.885,0.963-11.408,2.789l-37.906,19.618c-5.895,3.053-10.25,8.217-12.258,14.54c-2.01,6.328-1.436,13.056,1.615,18.949
		c4.29,8.281,12.753,13.429,22.085,13.429c3.939,0,7.881-0.958,11.375-2.772l40.072-20.393L78.597,132.047z M107.005,132.03
		c4.239,2.194,7.363,5.903,8.811,10.441c1.444,4.541,1.03,9.373-1.16,13.606l-19.617,37.9c-3.08,5.951-9.158,9.646-15.856,9.646
		c-2.868,0-5.621-0.67-8.189-1.998c-8.737-4.524-12.167-15.308-7.633-24.062l20.465-40.221l4.857-10.129l5.628-2.7l-0.067,0.089
		c-0.778,1.112-0.836,2.573-0.164,3.751c0.672,1.174,1.93,1.865,3.318,1.748C100.723,129.833,104.041,130.497,107.005,132.03z
		 M146.123,7.368c5.596,1.023,15.256,3.805,18.196,9.161c1.252,2.274,1.136,4.937-0.356,8.136L124.809,80.8L103.953,95.35
		L146.123,7.368z M33.055,147.299c-2.562,1.325-5.313,1.995-8.176,1.995c-6.704,0-12.776-3.695-15.86-9.644
		c-2.19-4.229-2.601-9.062-1.16-13.603c1.444-4.541,4.572-8.248,8.805-10.438l37.907-19.623c2.562-1.328,5.318-2,8.183-2
		c6.702,0,12.78,3.696,15.86,9.65c1.524,2.944,2.187,6.268,1.92,9.604c-0.104,1.354,0.575,2.648,1.749,3.319
		c1.181,0.674,2.632,0.605,3.751-0.164l11.009-7.68l0,0l32.285-22.515c0.004-0.003,0.007-0.007,0.011-0.01l56.644-39.511
		c1.734-0.806,3.34-1.22,4.777-1.22c8.018,0,11.42,13.446,12.49,19.07L73.22,126.856L33.055,147.299z"/>
	<path d="M67.108,98.167c-3.588-1.139-7.575-0.802-10.929,0.936l-37.904,19.618c-1.328,0.688-2.525,1.561-3.562,2.598
		c-4.433,4.428-5.474,11.149-2.583,16.724c1.762,3.405,4.745,5.917,8.389,7.074c1.414,0.448,2.875,0.674,4.346,0.674
		c2.267,0,4.545-0.555,6.584-1.615l37.912-19.619c1.335-0.695,2.534-1.567,3.554-2.594c4.43-4.429,5.47-11.146,2.585-16.718
		C73.742,101.847,70.763,99.334,67.108,98.167z"/>
</g>
</svg>