<svg width="32" height="32" viewBox="0 0 32 32" fill="none" xmlns="http://www.w3.org/2000/svg">
<path d="M4.7311 0C2.12213 0 0 3.44369 0 7.67606C0 11.9084 2.12213 15.3521 4.7311 15.3521C7.34007 15.3521 9.4622 11.9084 9.4622 7.67606C9.46214 3.44369 7.34001 0 4.7311 0ZM4.7311 13.9354C2.77862 13.9354 1.18978 11.1274 1.18978 7.67606C1.18978 4.22474 2.77862 1.41676 4.7311 1.41676C6.68358 1.41676 8.27242 4.22474 8.27242 7.67606C8.27242 11.1274 6.68358 13.9354 4.7311 13.9354Z" fill="black"/>
<path d="M16 0C13.3911 0 11.2689 3.44369 11.2689 7.67606C11.2689 11.9084 13.3911 15.3521 16 15.3521C18.609 15.3521 20.7311 11.9084 20.7311 7.67606C20.7311 3.44369 18.6089 0 16 0ZM16 13.9354C14.0475 13.9354 12.4587 11.1274 12.4587 7.67606C12.4587 4.22474 14.0475 1.41676 16 1.41676C17.9525 1.41676 19.5413 4.22474 19.5413 7.67606C19.5413 11.1274 17.9525 13.9354 16 13.9354Z" fill="black"/>
<path d="M27.2689 0C24.66 0 22.5378 3.44369 22.5378 7.67606C22.5378 11.9084 24.66 15.3521 27.2689 15.3521C29.8779 15.3521 32 11.9084 32 7.67606C32 3.44369 29.8779 0 27.2689 0ZM27.2689 13.9354C25.3165 13.9354 23.7276 11.1274 23.7276 7.67606C23.7276 4.22474 25.3165 1.41676 27.2689 1.41676C29.2214 1.41676 30.8103 4.22474 30.8103 7.67606C30.8103 11.1274 29.2214 13.9354 27.2689 13.9354Z" fill="black"/>
<path d="M12.1358 24.6804L13.5258 24.7728C13.4212 28.0075 14.3376 28.2833 12.7485 28.3881L12.1357 28.4432V32L12.8421 31.9726C14.9171 31.8879 14.3604 31.4831 15.891 30.1129C17.2327 28.9119 17.3368 27.4639 17.3368 24.4517L17.3368 18.5807H12.1358L12.1358 21.6305L12.1358 24.6804Z" fill="black"/>
</svg>
