<svg width="33" height="34" viewBox="0 0 33 34" fill="none" xmlns="http://www.w3.org/2000/svg">
<path d="M18.5485 25.6297C19.5807 25.6297 27.8388 15.7836 27.8388 13.322C27.8388 13.322 18 0.514268 17.5163 1.01427M18.5485 25.6297C17.5163 25.6297 7.19367 13.322 8.22593 12.0913M18.5485 25.6297L17.5163 28.0912C17.5163 28.0912 7.19355 28.0912 6.16129 28.0912C5.12903 28.0912 1 23.1681 1 21.9373C1 20.7066 8.22593 12.0913 8.22593 12.0913M17.5163 1.01427C17.5163 1.01427 9.25819 10.8605 8.22593 12.0913M17.5163 1.01427L8.22593 12.0913M6.16129 33.0143H33" stroke="black"/>
</svg>
