<svg width="32" height="33" viewBox="0 0 32 33" fill="none" xmlns="http://www.w3.org/2000/svg">
<path d="M15.3317 19.0197L9.23628 14.1258C5.42656 11.067 0.844041 13.6532 2.20671 19.7596" stroke="black"/>
<path d="M9.2363 14.1257C9.58492 15.91 9.62415 15.3266 6.56534 19.1363C3.50653 22.9461 12.262 29.0859 13.0459 17.1844" stroke="black"/>
<path d="M6.95654 6.47522L11.4892 10.465M17.9644 16.1648L11.4892 10.465M11.4892 10.465C11.1015 4.37758 15.8939 2.8499 19.779 6.26975C23.6641 9.68959 20.8918 14.1447 16.0218 14.4549" stroke="black"/>
<path d="M9.04346 31.3044L29.7035 9.95569M29.913 9.73914V14.6087L29.7035 9.95569M29.913 9.73914L29.7035 9.95569M29.913 9.73914L25.7391 9.95569M16 26.4348L18.0869 29.913V32M20.8695 32H25.7391" stroke="black"/>
<path d="M27.826 32H32" stroke="black"/>
</svg>
