<svg width="34" height="34" viewBox="0 0 34 34" fill="none" xmlns="http://www.w3.org/2000/svg">
<path d="M9.42105 24.5789H1V1H27.9474V11.9474M8.57895 23.7368L5.21053 20.3684M1.84211 14.4737L7.73684 9.42105L13.6316 15.3158M21.2105 6.05263C19.5263 6.05263 19.5263 6.05263 19.5263 7.73684C19.5263 9.42105 19.5263 9.42105 21.2105 9.42105C22.8947 9.42105 22.8947 9.42105 22.8947 7.73684C22.8947 6.05263 22.8947 6.05263 21.2105 6.05263ZM16.1579 33V14.4737H33V33H16.1579Z" stroke="black"/>
<path d="M22.8948 27.1053V29.6316H19.5264V24.579H27.1053C30.371 22.5614 31.3808 21.2768 27.1053 17.8422H22.8948V27.1053Z" stroke="#C53758"/>
</svg>
