<svg width="34" height="34" viewBox="0 0 34 34" fill="none" xmlns="http://www.w3.org/2000/svg">
<path d="M14.1765 22.8947V24.5789M14.1765 24.5789V33H1V9.42105M14.1765 24.5789H1.94118M1 9.42105V1H14.1765V9.42105M1 9.42105C1.75294 9.42105 10.098 9.42105 14.1765 9.42105M14.1765 9.42105V13.6316M19.8235 24.5789V33H33V9.42105M19.8235 24.5789V22.8947M19.8235 24.5789H32.0588M33 9.42105V1H19.8235V9.42105M33 9.42105H19.8235M19.8235 9.42105V13.6316M15.1176 17.8421H3.82353M3.82353 17.8421L9.47059 13.6316M3.82353 17.8421L9.47059 22.0526M18.8824 17.8421H30.1765M30.1765 17.8421L24.5294 13.6316M30.1765 17.8421L24.5294 22.0526" stroke="black"/>
</svg>
