<svg width="32" height="22" viewBox="0 0 32 22" fill="none" xmlns="http://www.w3.org/2000/svg">
<path d="M13.4005 0C10.3112 0 7.79846 4.93491 7.79846 11C7.79846 17.0651 10.3112 22 13.4005 22C16.4897 22 19.0025 17.0651 19.0025 11C19.0025 4.93491 16.4897 0 13.4005 0ZM13.4005 19.9697C11.0886 19.9697 9.20727 15.9458 9.20727 11C9.20727 6.05417 11.0886 2.03026 13.4005 2.03026C15.7124 2.03026 17.5937 6.05417 17.5937 11C17.5937 15.9458 15.7124 19.9697 13.4005 19.9697Z" fill="black"/>
<path d="M13.4005 0C10.3112 0 7.79846 4.93491 7.79846 11C7.79846 17.0651 10.3112 22 13.4005 22C16.4897 22 19.0025 17.0651 19.0025 11C19.0025 4.93491 16.4897 0 13.4005 0ZM13.4005 19.9697C11.0886 19.9697 9.20727 15.9458 9.20727 11C9.20727 6.05417 11.0886 2.03026 13.4005 2.03026C15.7124 2.03026 17.5937 6.05417 17.5937 11C17.5937 15.9458 15.7124 19.9697 13.4005 19.9697Z" fill="black"/>
<path d="M26.3981 0C23.3088 0 20.796 4.93491 20.796 11C20.796 17.0651 23.3088 22 26.3981 22C29.4873 22 32.0001 17.0651 32.0001 11C32 4.93491 29.4872 0 26.3981 0ZM26.3981 19.9697C24.0861 19.9697 22.2048 15.9458 22.2048 11C22.2048 6.05417 24.0861 2.03026 26.3981 2.03026C28.71 2.03026 30.5913 6.05417 30.5913 11C30.5913 15.9458 28.71 19.9697 26.3981 19.9697Z" fill="black"/>
<path d="M26.3981 0C23.3088 0 20.796 4.93491 20.796 11C20.796 17.0651 23.3088 22 26.3981 22C29.4873 22 32.0001 17.0651 32.0001 11C32 4.93491 29.4872 0 26.3981 0ZM26.3981 19.9697C24.0861 19.9697 22.2048 15.9458 22.2048 11C22.2048 6.05417 24.0861 2.03026 26.3981 2.03026C28.71 2.03026 30.5913 6.05417 30.5913 11C30.5913 15.9458 28.71 19.9697 26.3981 19.9697Z" fill="black"/>
<path d="M1.5 12.7391H3.69898V17.2318H1.5V12.7391Z" stroke="black" stroke-width="3"/>
</svg>
