<svg width="33" height="33" viewBox="0 0 33 33" fill="none" xmlns="http://www.w3.org/2000/svg">
<path d="M32.5 23.4865C32.5 28.4347 28.212 32.5 22.8536 32.5C17.4953 32.5 13.2073 28.4347 13.2073 23.4865C13.2073 18.5383 17.4953 14.473 22.8536 14.473C28.212 14.473 32.5 18.5383 32.5 23.4865Z" stroke="#2453DE"/>
<path d="M32.2195 23.4865H25.9756H13.4878M25.9756 14.8378C29.3738 22.2947 28.2028 25.8402 25.9756 32.1351M19.7317 14.8378C16.4833 21.593 17.3848 25.38 19.7317 32.1351" stroke="#2453DE"/>
<path d="M19.7317 11.3784V7.91892M19.7317 7.91892V1H10.3659V14.8378M19.7317 7.91892H29.0976V12.2432M10.3659 14.8378V15.7027V30.4054H1V14.8378H10.3659Z" stroke="black"/>
</svg>
