<svg width="34" height="34" viewBox="0 0 34 34" fill="none" xmlns="http://www.w3.org/2000/svg">
<path d="M30.8492 13.9682L24.4107 22.4009L21.1235 26.7104" stroke="black" stroke-linecap="round" stroke-linejoin="round"/>
<path d="M17.9693 13.9708L24.4106 22.4009L27.6993 26.709" stroke="black" stroke-linecap="round" stroke-linejoin="round"/>
<path d="M22.2662 29.431C22.2659 27.4607 20.824 25.8637 19.0456 25.8641C17.2673 25.8645 15.826 27.462 15.8263 29.4324C15.8266 31.4027 17.2685 32.9996 19.0468 32.9993C20.8252 32.9989 22.2665 31.4013 22.2662 29.431Z" stroke="black" stroke-linecap="round" stroke-linejoin="round"/>
<path d="M32.9994 29.4289C32.999 27.4585 31.5571 25.8616 29.7788 25.862C28.0005 25.8623 26.5591 27.4599 26.5595 29.4302C26.5598 31.4006 28.0017 32.9975 29.78 32.9971C31.5584 32.9968 32.9997 31.3992 32.9994 29.4289Z" stroke="black" stroke-linecap="round" stroke-linejoin="round"/>
<path d="M8.02184 30.3934H1V1H30.6478V4.45804M9.58225 30.3934H12.7031" stroke="black"/>
<path d="M30.6477 7.05157V10.5096" stroke="black"/>
</svg>
