<svg width="34" height="35" viewBox="0 0 34 35" fill="none" xmlns="http://www.w3.org/2000/svg">
<path d="M1 18.2975L2.52019 13.0633M10.1211 18.2975L8.60096 13.0633M8.60096 13.0633L7.84086 10.4462L5.56057 2.595L2.52019 13.0633M8.60096 13.0633H2.52019M19.2423 9.57387C23.6853 14.0664 23.3728 15.9 19.2423 18.2975H13.1615V9.57387M19.2423 9.57387C21.5958 6.85219 21.4438 5.31699 19.2423 2.595H13.1615V9.57387M19.2423 9.57387H13.1615M32.924 14.808C30.0694 21.7618 25.3284 16.9594 25.3231 14.808V6.08443C26.2521 -0.970429 33.8362 2.52051 32.924 6.08443" stroke="black"/>
<path d="M7.08081 25.2764L12.4015 34L23.8029 21.787" stroke="#057C52"/>
</svg>
