<svg width="33" height="33" viewBox="0 0 33 33" fill="none" xmlns="http://www.w3.org/2000/svg">
<path d="M1 1V20.0126H8.92192" stroke="black"/>
<path d="M1 1H20.0126V8.92191" stroke="black"/>
<mask id="path-3-inside-1_20_846" fill="white">
<path d="M20.5377 11.117C19.2894 11.1282 18.0555 11.3851 16.9064 11.8732C15.7574 12.3612 14.7157 13.0708 13.8409 13.9614C12.9661 14.852 12.2753 15.9062 11.8079 17.0638C11.3405 18.2214 11.1057 19.4597 11.1169 20.708L20.6228 20.6229L20.5377 11.117Z"/>
</mask>
<path d="M20.5377 11.117C19.2894 11.1282 18.0555 11.3851 16.9064 11.8732C15.7574 12.3612 14.7157 13.0708 13.8409 13.9614C12.9661 14.852 12.2753 15.9062 11.8079 17.0638C11.3405 18.2214 11.1057 19.4597 11.1169 20.708L20.6228 20.6229L20.5377 11.117Z" stroke="#C5591C" stroke-width="2" mask="url(#path-3-inside-1_20_846)"/>
<mask id="path-4-inside-2_20_846" fill="white">
<path d="M11.1506 20.7182C11.1627 22.5984 11.7321 24.4327 12.7867 25.9892C13.8413 27.5457 15.3339 28.7546 17.0755 29.4629C18.8172 30.1711 20.7297 30.3471 22.5714 29.9684C24.413 29.5897 26.101 28.6734 27.4219 27.3354C28.7428 25.9973 29.6372 24.2977 29.9921 22.4513C30.347 20.6049 30.1464 18.6948 29.4157 16.9624C28.685 15.2301 27.457 13.7533 25.887 12.7188C24.317 11.6843 22.4755 11.1387 20.5954 11.1508L20.6567 20.6569L11.1506 20.7182Z"/>
</mask>
<path d="M11.1506 20.7182C11.1627 22.5984 11.7321 24.4327 12.7867 25.9892C13.8413 27.5457 15.3339 28.7546 17.0755 29.4629C18.8172 30.1711 20.7297 30.3471 22.5714 29.9684C24.413 29.5897 26.101 28.6734 27.4219 27.3354C28.7428 25.9973 29.6372 24.2977 29.9921 22.4513C30.347 20.6049 30.1464 18.6948 29.4157 16.9624C28.685 15.2301 27.457 13.7533 25.887 12.7188C24.317 11.6843 22.4755 11.1387 20.5954 11.1508L20.6567 20.6569L11.1506 20.7182Z" stroke="black" stroke-width="2" mask="url(#path-4-inside-2_20_846)"/>
</svg>
