<svg width="32" height="33" viewBox="0 0 32 33" fill="none" xmlns="http://www.w3.org/2000/svg">
<path d="M7.75 13.2414C7.75 15.5647 6.04848 17.4052 4 17.4052C1.95152 17.4052 0.25 15.5647 0.25 13.2414C0.25 10.918 1.95152 9.07758 4 9.07758C6.04848 9.07758 7.75 10.918 7.75 13.2414Z" stroke="black" stroke-width="0.5"/>
<path d="M19.75 4.41379C19.75 6.73712 18.0485 8.57759 16 8.57759C13.9515 8.57759 12.25 6.73712 12.25 4.41379C12.25 2.09047 13.9515 0.25 16 0.25C18.0485 0.25 19.75 2.09047 19.75 4.41379Z" stroke="black" stroke-width="0.5"/>
<path d="M19 5.51721L25 8.82756" stroke="black"/>
<path d="M31.75 11.0345C31.75 13.3578 30.0485 15.1983 28 15.1983C25.9515 15.1983 24.25 13.3578 24.25 11.0345C24.25 8.71114 25.9515 6.87067 28 6.87067C30.0485 6.87067 31.75 8.71114 31.75 11.0345Z" stroke="black" stroke-width="0.5"/>
<path d="M7 11.0345L13 6.62067" stroke="black"/>
<path d="M1 32H3M31 32H29M29 32V18.7586H21M29 32H21M21 18.7586V14.3448H11V20.9655M21 18.7586V32M11 20.9655H3V32M11 20.9655V32M3 32H11M11 32H21" stroke="black"/>
</svg>
