<svg width="34" height="34" viewBox="0 0 34 34" fill="none" xmlns="http://www.w3.org/2000/svg">
<path d="M25 6.05263V1H1V6.05263M25 6.05263H33V33H3V31.3158H1V6.05263M25 6.05263H1" stroke="black"/>
<mask id="path-2-inside-1_21_981" fill="white">
<path d="M12 17H8V20.3684H12V17Z"/>
<path d="M20 17H16V20.3684H20V17Z"/>
<path d="M28 17H24V20.3684H28V17Z"/>
</mask>
<path d="M8 17V12H3V17H8ZM12 17H17V12H12V17ZM12 20.3684V25.3684H17V20.3684H12ZM8 20.3684H3V25.3684H8V20.3684ZM16 17V12H11V17H16ZM20 17H25V12H20V17ZM20 20.3684V25.3684H25V20.3684H20ZM16 20.3684H11V25.3684H16V20.3684ZM24 17V12H19V17H24ZM28 17H33V12H28V17ZM28 20.3684V25.3684H33V20.3684H28ZM24 20.3684H19V25.3684H24V20.3684ZM8 22H12V12H8V22ZM7 17V20.3684H17V17H7ZM12 15.3684H8V25.3684H12V15.3684ZM13 20.3684V17H3V20.3684H13ZM16 22H20V12H16V22ZM15 17V20.3684H25V17H15ZM20 15.3684H16V25.3684H20V15.3684ZM21 20.3684V17H11V20.3684H21ZM24 22H28V12H24V22ZM23 17V20.3684H33V17H23ZM28 15.3684H24V25.3684H28V15.3684ZM29 20.3684V17H19V20.3684H29Z" fill="#426AB2" mask="url(#path-2-inside-1_21_981)"/>
</svg>
