<svg width="32" height="32" viewBox="0 0 32 32" fill="none" xmlns="http://www.w3.org/2000/svg">
<path d="M26.5421 15.3481C23.5324 15.3481 21.0842 18.5227 21.0842 22.4243C21.0842 26.3259 23.5324 29.5005 26.5421 29.5005C29.5519 29.5005 32 26.3259 32 22.4243C31.9999 18.5227 29.5518 15.3481 26.5421 15.3481ZM26.5421 28.1944C24.2897 28.1944 22.4568 25.6059 22.4568 22.4243C22.4568 19.2427 24.2897 16.6541 26.5421 16.6541C28.7945 16.6541 30.6274 19.2427 30.6274 22.4243C30.6274 25.6059 28.7945 28.1944 26.5421 28.1944Z" fill="black"/>
<path d="M5.45788 2.50232C2.44813 2.50232 0 5.6763 0 9.57792C0 13.4795 2.44813 16.6541 5.45788 16.6541C8.46694 16.6541 10.9151 13.4795 10.9151 9.57792C10.9151 5.6763 8.46694 2.50232 5.45788 2.50232ZM5.45788 15.3481C3.20546 15.3481 1.37256 12.7595 1.37256 9.57792C1.37256 6.39631 3.20546 3.80843 5.45788 3.80843C7.7103 3.80843 9.54258 6.39631 9.54258 9.57792C9.54258 12.7595 7.7103 15.3481 5.45788 15.3481Z" fill="black"/>
<path d="M24.9153 -4.96657e-05L5.89587 31.3469L7.08445 31.9999L26.1039 0.652973L24.9153 -4.96657e-05Z" fill="black"/>
</svg>
