<svg width="34" height="34" viewBox="0 0 34 34" fill="none" xmlns="http://www.w3.org/2000/svg">
<path d="M28.998 1.00074L17.0007 15.1818L10.8754 22.429" stroke="black" stroke-width="2" stroke-linecap="round" stroke-linejoin="round"/>
<path d="M4.99804 1.00532L17.0007 15.1819L23.1288 22.4268" stroke="black" stroke-width="2" stroke-linecap="round" stroke-linejoin="round"/>
<path d="M13.0048 27.0042C13.0042 23.6908 10.3174 21.0052 7.0037 21.0059C3.69003 21.0065 1.00423 23.693 1.00485 27.0065C1.00548 30.3199 3.69229 33.0055 7.00596 33.0049C10.3197 33.0042 13.0055 30.3177 13.0048 27.0042Z" stroke="#2453DE" stroke-width="2" stroke-linecap="round" stroke-linejoin="round"/>
<path d="M33.0049 27.0005C33.0042 23.687 30.3175 21.0015 27.0037 21.0021C23.6901 21.0028 21.0042 23.6893 21.0049 27.0028C21.0055 30.3162 23.6923 33.0018 27.006 33.0011C30.3197 33.0005 33.0055 30.314 33.0049 27.0005Z" stroke="#2453DE" stroke-width="2" stroke-linecap="round" stroke-linejoin="round"/>
</svg>
