<svg width="32" height="33" viewBox="0 0 32 33" fill="none" xmlns="http://www.w3.org/2000/svg">
<path d="M4.8 0C4.3 0 4.3 3.05176e-05 4.3 9.1523e-05C4.3 0.000152528 4.3 0.000244021 4.3 0.000365973C4.3 0.000487924 4.3 0.000640333 4.3 0.00082317C4.3 0.00100601 4.3 0.00121927 4.3 0.00146294C4.3 0.0017066 4.3 0.00198066 4.3 0.00228509C4.3 0.00258952 4.3 0.00292432 4.3 0.00328946C4.3 0.0036546 4.3 0.00405008 4.3 0.00447586C4.3 0.00490165 4.3 0.00535774 4.3 0.00584412C4.3 0.00633049 4.3 0.00684714 4.3 0.00739405C4.3 0.00794095 4.3 0.0085181 4.3 0.00912547C4.3 0.00973284 4.3 0.0103704 4.3 0.0110382C4.3 0.011706 4.3 0.012404 4.3 0.0131321C4.3 0.0138602 4.3 0.0146185 4.3 0.0154069C4.3 0.0161954 4.3 0.0170139 4.3 0.0178626C4.3 0.0187112 4.3 0.01959 4.3 0.0204988C4.3 0.0214076 4.3 0.0223465 4.3 0.0233154C4.3 0.0242844 4.3 0.0252833 4.3 0.0263123C4.3 0.0273413 4.3 0.0284003 4.3 0.0294893C4.3 0.0305783 4.3 0.0316972 4.3 0.0328461C4.3 0.033995 4.3 0.0351739 4.3 0.0363827C4.3 0.0375915 4.3 0.0388302 4.3 0.0400988C4.3 0.0413674 4.3 0.0426658 4.3 0.0439942C4.3 0.0453225 4.3 0.0466808 4.3 0.0480688C4.3 0.0494568 4.3 0.0508747 4.3 0.0523224C4.3 0.0537701 4.3 0.0552476 4.3 0.0567548C4.3 0.0582621 4.3 0.0597991 4.3 0.0613659C4.3 0.0629326 4.3 0.0645291 4.3 0.0661554C4.3 0.0677816 4.3 0.0694375 4.3 0.0711231C4.3 0.0728088 4.3 0.0745241 4.3 0.076269C4.3 0.078014 4.3 0.0797886 4.3 0.0815928C4.3 0.0833971 4.3 0.0852309 4.3 0.0870944C4.3 0.0889578 4.3 0.0908509 4.3 0.0927735C4.3 0.0946961 4.3 0.0966482 4.3 0.0986299C4.3 0.100612 4.3 0.102623 4.3 0.104664C4.3 0.106704 4.3 0.108775 4.3 0.110874C4.3 0.112974 4.3 0.115103 4.3 0.117262C4.3 0.119421 4.3 0.121609 4.3 0.123826C4.3 0.126044 4.3 0.128291 4.3 0.130567C4.3 0.132843 4.3 0.135149 4.3 0.137484C4.3 0.139819 4.3 0.142183 4.3 0.144577C4.3 0.146971 4.3 0.149394 4.3 0.151846C4.3 0.154299 4.3 0.15678 4.3 0.159291C4.3 0.161802 4.3 0.164342 4.3 0.166912C4.3 0.169481 4.3 0.17208 4.3 0.174707C4.3 0.177335 4.3 0.179992 4.3 0.182679C4.3 0.185365 4.3 0.18808 4.3 0.190825C4.3 0.193569 4.3 0.196343 4.3 0.199146C4.3 0.201949 4.3 0.204781 4.3 0.207642C4.3 0.210503 4.3 0.213393 4.3 0.216312C4.3 0.219231 4.3 0.222179 4.3 0.225157C4.3 0.228134 4.3 0.23114 4.3 0.234175C4.3 0.237211 4.3 0.240275 4.3 0.243368C4.3 0.246461 4.3 0.249584 4.3 0.252735C4.3 0.255886 4.3 0.259066 4.3 0.262275C4.3 0.265484 4.3 0.268722 4.3 0.271989C4.3 0.275256 4.3 0.278551 4.3 0.281876C4.3 0.2852 4.3 0.288554 4.3 0.291936C4.3 0.295318 4.3 0.298729 4.3 0.302169C4.3 0.305608 4.3 0.309077 4.3 0.312574C4.3 0.316072 4.3 0.319598 4.3 0.323153C4.3 0.326707 4.3 0.330291 4.3 0.333903C4.3 0.337515 4.3 0.341156 4.3 0.344826C4.3 0.348496 4.3 0.352194 4.3 0.355921C4.3 0.359648 4.3 0.363403 4.3 0.367188C4.3 0.370972 4.3 0.374785 4.3 0.378626C4.3 0.382467 4.3 0.386337 4.3 0.390236C4.3 0.394134 4.3 0.398061 4.3 0.402017C4.3 0.405972 4.3 0.409957 4.3 0.413969C4.3 0.417982 4.3 0.422023 4.3 0.426092C4.3 0.430162 4.3 0.43426 4.3 0.438386C4.3 0.442513 4.3 0.446668 4.3 0.450851C4.3 0.455034 4.3 0.459246 4.3 0.463486C4.3 0.467726 4.3 0.471994 4.3 0.476291C4.3 0.480588 4.3 0.484913 4.3 0.489266C4.3 0.49362 4.3 0.498001 4.3 0.502411C4.3 0.506821 4.3 0.51126 4.3 0.515726C4.3 0.520193 4.3 0.524688 4.3 0.529211C4.3 0.533734 4.3 0.538285 4.3 0.542864C4.3 0.547444 4.3 0.552051 4.3 0.556687C4.3 0.561323 4.3 0.565987 4.3 0.570679C4.3 0.575371 4.3 0.580091 4.3 0.584839C4.3 0.589588 4.3 0.594364 4.3 0.599169C4.3 0.603973 4.3 0.608806 4.3 0.613666C4.3 0.618527 4.3 0.623416 4.3 0.628332C4.3 0.633249 4.3 0.638194 4.3 0.643166C4.3 0.648139 4.3 0.65314 4.3 0.658168C4.3 0.663197 4.3 0.668253 4.3 0.673338C4.3 0.678422 4.3 0.683535 4.3 0.688675C4.3 0.693815 4.3 0.698984 4.3 0.70418C4.3 0.709376 4.3 0.7146 4.3 0.719851C4.3 0.725103 4.3 0.730383 4.3 0.73569C4.3 0.740998 4.3 0.746333 4.3 0.751696C4.3 0.757059 4.3 0.76245 4.3 0.767868C4.3 0.773287 4.3 0.778733 4.3 0.784207C4.3 0.789681 4.3 0.795182 4.3 0.800712C4.3 0.806241 4.3 0.811798 4.3 0.817383C4.3 0.822968 4.3 0.82858 4.3 0.83422C4.3 0.83986 4.3 0.845528 4.3 0.851223C4.3 0.856918 4.3 0.862641 4.3 0.868391C4.3 0.874142 4.3 0.87992 4.3 0.885725C4.3 0.891531 4.3 0.897364 4.3 0.903224C4.3 0.909085 4.3 0.914973 4.3 0.920888C4.3 0.926804 4.3 0.932747 4.3 0.938717C4.3 0.944688 4.3 0.950686 4.3 0.956711C4.3 0.962736 4.3 0.968789 4.3 0.974869C4.3 0.980949 4.3 0.987057 4.3 0.993192C4.3 0.999327 4.3 1.00549 4.3 1.01168C4.3 1.01787 4.3 1.02408 4.3 1.03033C4.3 1.03657 4.3 1.04284 4.3 1.04914C4.3 1.05544 4.3 1.06177 4.3 1.06812C4.3 1.07447 4.3 1.08086 4.3 1.08726C4.3 1.09367 4.3 1.10011 4.3 1.10657C4.3 1.11303 4.3 1.11952 4.3 1.12604C4.3 1.13255 4.3 1.1391 4.3 1.14567C4.3 1.15224 4.3 1.15883 4.3 1.16546C4.3 1.17208 4.3 1.17874 4.3 1.18542C4.3 1.19209 4.3 1.1988 4.3 1.20553C4.3 1.21227 4.3 1.21903 4.3 1.22581C4.3 1.2326 4.3 1.23942 4.3 1.24626C4.3 1.2531 4.3 1.25997 4.3 1.26686C4.3 1.27376 4.3 1.28068 4.3 1.28763C4.3 1.29458 4.3 1.30155 4.3 1.30855C4.3 1.31556 4.3 1.32259 4.3 1.32964C4.3 1.3367 4.3 1.34378 4.3 1.35089C4.3 1.358 4.3 1.36514 4.3 1.3723C4.3 1.37947 4.3 1.38666 4.3 1.39388C4.3 1.40109 4.3 1.40834 4.3 1.41561C4.3 1.42288 4.3 1.43018 4.3 1.4375C4.3 1.44482 4.3 1.45218 4.3 1.45955C4.3 1.46693 4.3 1.47433 4.3 1.48177C4.3 1.4892 4.3 1.49665 4.3 1.50414C4.3 1.51162 4.3 1.51913 4.3 1.52667C4.3 1.53421 4.3 1.54177 4.3 1.54936C4.3 1.55695 4.3 1.56457 4.3 1.57221C4.3 1.57986 4.3 1.58753 4.3 1.59522C4.3 1.60292 4.3 1.61064 4.3 1.61839C4.3 1.62614 4.3 1.63392 4.3 1.64172C4.3 1.64952 4.3 1.65735 4.3 1.66521C4.3 1.67306 4.3 1.68094 4.3 1.68885C4.3 1.69676 4.3 1.7047 4.3 1.71266C4.3 1.72062 4.3 1.7286 4.3 1.73662C4.3 1.74463 4.3 1.75267 4.3 1.76074C4.3 1.7688 4.3 1.7769 4.3 1.78501C4.3 1.79313 4.3 1.80128 4.3 1.80945C4.3 1.81762 4.3 1.82582 4.3 1.83404C4.3 1.84226 4.3 1.85051 4.3 1.85879C4.3 1.86707 4.3 1.87537 4.3 1.8837C4.3 1.89202 4.3 1.90038 4.3 1.90876C4.3 1.91714 4.3 1.92555 4.3 1.93398C4.3 1.94241 4.3 1.95087 4.3 1.95935C4.3 1.96784 4.3 1.97635 4.3 1.98489C4.3 1.99342 4.3 2.00199 4.3 2.01057C4.3 2.01916 4.3 2.02778 4.3 2.03642C4.3 2.04506 4.3 2.05373 4.3 2.06242C4.3 2.07111 4.3 2.07983 4.3 2.08857C4.3 2.09732 4.3 2.10609 4.3 2.11489C4.3 2.12368 4.3 2.1325 4.3 2.14135C4.3 2.1502 4.3 2.15907 4.3 2.16797C4.3 2.17687 4.3 2.1858 4.3 2.19475C4.3 2.2037 4.3 2.21268 4.3 2.22168C4.3 2.23068 4.3 2.23971 4.3 2.24877C4.3 2.25782 4.3 2.2669 4.3 2.27601C4.3 2.28511 4.3 2.29424 4.3 2.3034C4.3 2.31256 4.3 2.32174 4.3 2.33095C4.3 2.34015 4.3 2.34939 4.3 2.35865C4.3 2.36791 4.3 2.37719 4.3 2.3865C4.3 2.39581 4.3 2.40515 4.3 2.41451C4.3 2.42387 4.3 2.43326 4.3 2.44267C4.3 2.45209 4.3 2.46152 4.3 2.47099C4.3 2.48045 4.3 2.48994 4.3 2.49946C4.3 2.50897 4.3 2.51851 4.3 2.52808C4.3 2.53764 4.3 2.54723 4.3 2.55685C4.3 2.56647 4.3 2.57611 4.3 2.58577C4.3 2.59544 4.3 2.60513 4.3 2.61485C4.3 2.62457 4.3 2.63431 4.3 2.64408C4.3 2.65385 4.3 2.66364 4.3 2.67346C4.3 2.68328 4.3 2.69313 4.3 2.703C4.3 2.71286 4.3 2.72276 4.3 2.73268C4.3 2.7426 4.3 2.75254 4.3 2.76252C4.3 2.77249 4.3 2.78248 4.3 2.7925C4.3 2.80252 4.3 2.81257 4.3 2.82264C4.3 2.83271 4.3 2.84281 4.3 2.85293C4.3 2.86305 4.3 2.8732 4.3 2.88337C4.3 2.89354 4.3 2.90373 4.3 2.91396C4.3 2.92418 4.3 2.93442 4.3 2.9447C4.3 2.95497 4.3 2.96526 4.3 2.97559C4.3 2.98591 4.3 2.99625 4.3 3.00662C4.3 3.017 4.3 3.02739 4.3 3.03781C4.3 3.04824 4.3 3.05868 4.3 3.06915C4.3 3.07962 4.3 3.09012 4.3 3.10064C4.3 3.11116 4.3 3.12171 4.3 3.13228C4.3 3.14285 4.3 3.15344 4.3 3.16406C4.3 3.17468 4.3 3.18533 4.3 3.196C4.3 3.20667 4.3 3.21736 4.3 3.22808C4.3 3.2388 4.3 3.24954 4.3 3.26031C4.3 3.27108 4.3 3.28187 4.3 3.29269C4.3 3.30351 4.3 3.31435 4.3 3.32522C4.3 3.33609 4.3 3.34698 4.3 3.3579C4.3 3.36881 4.3 3.37975 4.3 3.39072C4.3 3.40169 4.3 3.41268 4.3 3.42369C4.3 3.43471 4.3 3.44575 4.3 3.45681C4.3 3.46787 4.3 3.47896 4.3 3.49008C4.3 3.50119 4.3 3.51233 4.3 3.52349C4.3 3.53465 4.3 3.54584 4.3 3.55705C4.3 3.56826 4.3 3.57949 4.3 3.59075C4.3 3.60201 4.3 3.6133 4.3 3.62461C4.3 3.63591 4.3 3.64725 4.3 3.6586C4.3 3.66996 4.3 3.68134 4.3 3.69275C4.3 3.70416 4.3 3.71559 4.3 3.72704C4.3 3.7385 4.3 3.74997 4.3 3.76148C4.3 3.77298 4.3 3.78451 4.3 3.79606C4.3 3.80761 4.3 3.81919 4.3 3.83079C4.3 3.84239 4.3 3.85401 4.3 3.86566C4.3 3.87731 4.3 3.88898 4.3 3.90068C4.3 3.91237 4.3 3.92409 4.3 3.93584C4.3 3.94758 4.3 3.95935 4.3 3.97115C4.3 3.98294 4.3 3.99476 4.3 4.0066C4.3 4.01844 4.3 4.0303 4.3 4.04219C4.3 4.05408 4.3 4.066 4.3 4.07793C4.3 4.08987 4.3 4.10183 4.3 4.11382C4.3 4.1258 4.3 4.13781 4.3 4.14985C4.3 4.16188 4.3 4.17394 4.3 4.18602C4.3 4.1981 4.3 4.2102 4.3 4.22233C4.3 4.23446 4.3 4.24661 4.3 4.25879C4.3 4.27097 4.3 4.28317 4.3 4.29539C4.3 4.30762 4.3 4.31986 4.3 4.33213C4.3 4.34441 4.3 4.3567 4.3 4.36902C4.3 4.38134 4.3 4.39368 4.3 4.40605C4.3 4.41842 4.3 4.43081 4.3 4.44322C4.3 4.45564 4.3 4.46807 4.3 4.48054C4.3 4.493 4.3 4.50548 4.3 4.51799C4.3 4.5305 4.3 4.54303 4.3 4.55559C4.3 4.56814 4.3 4.58072 4.3 4.59333C4.3 4.60593 4.3 4.61856 4.3 4.63121C4.3 4.64386 4.3 4.65653 4.3 4.66923C4.3 4.68193 4.3 4.69465 4.3 4.70739C4.3 4.72014 4.3 4.7329 4.3 4.7457C4.3 4.75849 4.3 4.7713 4.3 4.78414C4.3 4.79698 4.3 4.80984 4.3 4.82273C4.3 4.83561 4.3 4.84852 4.3 4.86145C4.3 4.87438 4.3 4.88734 4.3 4.90032C4.3 4.9133 4.3 4.9263 4.3 4.93932C4.3 4.95235 4.3 4.9654 4.3 4.97847C4.3 4.99154 4.3 5.00463 4.3 5.01775C4.3 5.03087 4.3 5.04401 4.3 5.05718C4.3 5.07034 4.3 5.08353 4.3 5.09674C4.3 5.10995 4.3 5.12319 4.3 5.13644C4.3 5.1497 4.3 5.16298 4.3 5.17629C4.3 5.18959 4.3 5.20292 4.3 5.21627C4.3 5.22962 4.3 5.24299 4.3 5.25639C4.3 5.26978 4.3 5.2832 4.3 5.29664C4.3 5.31009 4.3 5.32355 4.3 5.33704C4.3 5.35053 4.3 5.36404 4.3 5.37757C4.3 5.39111 4.3 5.40466 4.3 5.41824C4.3 5.43182 4.3 5.44543 4.3 5.45905C4.3 5.47268 4.3 5.48633 4.3 5.5C4.3 5.51367 4.3 5.52737 4.3 5.54109C4.3 5.5548 4.3 5.56854 4.3 5.58231C4.3 5.59607 4.3 5.60986 4.3 5.62366C4.3 5.63747 4.3 5.65131 4.3 5.66516C4.3 5.67901 4.3 5.69289 4.3 5.70679C4.3 5.72069 4.3 5.73461 4.3 5.74856C4.3 5.76251 4.3 5.77647 4.3 5.79046C4.3 5.80446 4.3 5.81847 4.3 5.83251C4.3 5.84654 4.3 5.8606 4.3 5.87468C4.3 5.88876 4.3 5.90287 4.3 5.91699C4.3 5.93112 4.3 5.94527 4.3 5.95944C4.3 5.97361 4.3 5.98781 4.3 6.00202C4.3 6.01624 4.3 6.03048 4.3 6.04474C4.3 6.059 4.3 6.07329 4.3 6.0876C4.3 6.1019 4.3 6.11623 4.3 6.13058C4.3 6.14494 4.3 6.15931 4.3 6.17371C4.3 6.1881 4.3 6.20252 4.3 6.21696C4.3 6.23141 4.3 6.24587 4.3 6.26036C4.3 6.27484 4.3 6.28935 4.3 6.30388C4.3 6.31841 4.3 6.33297 4.3 6.34754C4.3 6.36212 4.3 6.37671 4.3 6.39133C4.3 6.40595 4.3 6.4206 4.3 6.43526C4.3 6.44993 4.3 6.46461 4.3 6.47932C4.3 6.49403 4.3 6.50876 4.3 6.52351C4.3 6.53827 4.3 6.55304 4.3 6.56784C4.3 6.58264 4.3 6.59746 4.3 6.6123C4.3 6.62714 4.3 6.64201 4.3 6.65689C4.3 6.67178 4.3 6.68669 4.3 6.70162C4.3 6.71655 4.3 6.7315 4.3 6.74647C4.3 6.76145 4.3 6.77644 4.3 6.79146C4.3 6.80648 4.3 6.82152 4.3 6.83658C4.3 6.85165 4.3 6.86673 4.3 6.88184C4.3 6.89694 4.3 6.91207 4.3 6.92722C4.3 6.94237 4.3 6.95754 4.3 6.97274C4.3 6.98793 4.3 7.00315 4.3 7.01838C4.3 7.03362 4.3 7.04888 4.3 7.06416C4.3 7.07944 4.3 7.09475 4.3 7.11007C4.3 7.1254 4.3 7.14074 4.3 7.15611C4.3 7.17148 4.3 7.18687 4.3 7.20228C4.3 7.21769 4.3 7.23313 4.3 7.24858C4.3 7.26404 4.3 7.27951 4.3 7.29501C4.3 7.31051 4.3 7.32603 4.3 7.34157C4.3 7.35712 4.3 7.37268 4.3 7.38826C4.3 7.40385 4.3 7.41946 4.3 7.43508C4.3 7.45071 4.3 7.46636 4.3 7.48203C4.3 7.49771 4.3 7.5134 4.3 7.52911C4.3 7.54483 4.3 7.56056 4.3 7.57632C4.3 7.59208 4.3 7.60786 4.3 7.62366C4.3 7.63946 4.3 7.65528 4.3 7.67112C4.3 7.68697 4.3 7.70283 4.3 7.71872C4.3 7.7346 4.3 7.75051 4.3 7.76644C4.3 7.78237 4.3 7.79832 4.3 7.81429C4.3 7.83026 4.3 7.84626 4.3 7.86227C4.3 7.87829 4.3 7.89432 4.3 7.91038C4.3 7.92643 4.3 7.94251 4.3 7.95861C4.3 7.97471 4.3 7.99083 4.3 8.00697C4.3 8.02312 4.3 8.03928 4.3 8.05546C4.3 8.07165 4.3 8.08785 4.3 8.10408C4.3 8.12031 4.3 8.13655 4.3 8.15282C4.3 8.16909 4.3 8.18538 4.3 8.20169C4.3 8.218 4.3 8.23434 4.3 8.25069C4.3 8.26704 4.3 8.28342 4.3 8.29981C4.3 8.31621 4.3 8.33263 4.3 8.34906C4.3 8.3655 4.3 8.38196 4.3 8.39844C4.3 8.41492 4.3 8.43142 4.3 8.44794C4.3 8.46446 4.3 8.481 4.3 8.49757C4.3 8.51413 4.3 8.53071 4.3 8.54732C4.3 8.56392 4.3 8.58055 4.3 8.5972C4.3 8.61384 4.3 8.63051 4.3 8.6472C4.3 8.66389 4.3 8.6806 4.3 8.69733C4.3 8.71406 4.3 8.73081 4.3 8.74758C4.3 8.76435 4.3 8.78115 4.3 8.79796C4.3 8.81477 4.3 8.83161 4.3 8.84846C4.3 8.86532 4.3 8.88219 4.3 8.89909C4.3 8.91598 4.3 8.9329 4.3 8.94984C4.3 8.96678 4.3 8.98373 4.3 9.00071C4.3 9.01769 4.3 9.03469 4.3 9.05171C4.3 9.06873 4.3 9.08577 4.3 9.10283C4.3 9.11989 4.3 9.13698 4.3 9.15408C4.3 9.17118 4.3 9.1883 4.3 9.20545C4.3 9.22259 4.3 9.23975 4.3 9.25694C4.3 9.27412 4.3 9.29133 4.3 9.30855C4.3 9.32578 4.3 9.34302 4.3 9.36029C4.3 9.37755 4.3 9.39484 4.3 9.41215C4.3 9.42945 4.3 9.44678 4.3 9.46413C4.3 9.48148 4.3 9.49884 4.3 9.51623C4.3 9.53362 4.3 9.55103 4.3 9.56846C4.3 9.58589 4.3 9.60334 4.3 9.62081C4.3 9.63827 4.3 9.65576 4.3 9.67327C4.3 9.69078 4.3 9.70831 4.3 9.72586C4.3 9.74341 4.3 9.76099 4.3 9.77858C4.3 9.79617 4.3 9.81378 4.3 9.83141C4.3 9.84904 4.3 9.86669 4.3 9.88436C4.3 9.90203 4.3 9.91973 4.3 9.93744C4.3 9.95515 4.3 9.97288 4.3 9.99063C4.3 10.0084 4.3 10.0262 4.3 10.0439C4.3 10.0617 4.3 10.0796 4.3 10.0974C4.3 10.1152 4.3 10.1331 4.3 10.1509C4.3 10.1688 4.3 10.1867 4.3 10.2046C4.3 10.2225 4.3 10.2405 4.3 10.2584C4.3 10.2764 4.3 10.2943 4.3 10.3123C4.3 10.3303 4.3 10.3483 4.3 10.3664C4.3 10.3844 4.3 10.4024 4.3 10.4205C4.3 10.4386 4.3 10.4567 4.3 10.4748C4.3 10.4929 4.3 10.511 4.3 10.5292C4.3 10.5473 4.3 10.5655 4.3 10.5837C4.3 10.6019 4.3 10.6201 4.3 10.6383C4.3 10.6565 4.3 10.6748 4.3 10.693C4.3 10.7113 4.3 10.7296 4.3 10.7479C4.3 10.7662 4.3 10.7845 4.3 10.8029C4.3 10.8212 4.3 10.8396 4.3 10.858C4.3 10.8764 4.3 10.8948 4.3 10.9132C4.3 10.9316 4.3 10.9501 4.3 10.9685C4.3 10.987 4.3 11.0055 4.3 11.024C4.3 11.0425 4.3 11.061 4.3 11.0796C4.3 11.0981 4.3 11.1167 4.3 11.1352C4.3 11.1538 4.3 11.1724 4.3 11.191C4.3 11.2097 4.3 11.2283 4.3 11.247C4.3 11.2656 4.3 11.2843 4.3 11.303C4.3 11.3217 4.3 11.3404 4.3 11.3591C4.3 11.3779 4.3 11.3966 4.3 11.4154C4.3 11.4342 4.3 11.453 4.3 11.4718C4.3 11.4906 4.3 11.5094 4.3 11.5283C4.3 11.5471 4.3 11.566 4.3 11.5849C4.3 11.6038 4.3 11.6227 4.3 11.6416C4.3 11.6606 4.3 11.6795 4.3 11.6985C4.3 11.7174 4.3 11.7364 4.3 11.7554C4.3 11.7744 4.3 11.7935 4.3 11.8125C4.3 11.8315 4.3 11.8506 4.3 11.8697C4.3 11.8888 4.3 11.9079 4.3 11.927C4.3 11.9461 4.3 11.9652 4.3 11.9844C4.3 12.0036 4.3 12.0227 4.3 12.0419C4.3 12.0611 4.3 12.0803 4.3 12.0996C4.3 12.1188 4.3 12.1381 4.3 12.1573C4.3 12.1766 4.3 12.1959 4.3 12.2152C4.3 12.2345 4.3 12.2538 4.3 12.2732C4.3 12.2925 4.3 12.3119 4.3 12.3313C4.3 12.3507 4.3 12.3701 4.3 12.3895C4.3 12.4089 4.3 12.4283 4.3 12.4478C4.3 12.4673 4.3 12.4867 4.3 12.5062C4.3 12.5257 4.3 12.5452 4.3 12.5648C4.3 12.5843 4.3 12.6039 4.3 12.6234C4.3 12.643 4.3 12.6626 4.3 12.6822C4.3 12.7018 4.3 12.7214 4.3 12.7411C4.3 12.7607 4.3 12.7804 4.3 12.8001C4.3 12.8198 4.3 12.8395 4.3 12.8592C4.3 12.8789 4.3 12.8986 4.3 12.9184C4.3 12.9382 4.3 12.9579 4.3 12.9777C4.3 12.9975 4.3 13.0173 4.3 13.0372C4.3 13.057 4.3 13.0768 4.3 13.0967C4.3 13.1166 4.3 13.1365 4.3 13.1564C4.3 13.1763 4.3 13.1962 4.3 13.2161C4.3 13.2361 4.3 13.256 4.3 13.276C4.3 13.296 4.3 13.316 4.3 13.336C4.3 13.356 4.3 13.3761 4.3 13.3961C4.3 13.4162 4.3 13.4362 4.3 13.4563C4.3 13.4764 4.3 13.4965 4.3 13.5166C4.3 13.5368 4.3 13.5569 4.3 13.5771C4.3 13.5972 4.3 13.6174 4.3 13.6376C4.3 13.6578 4.3 13.678 4.3 13.6982C4.3 13.7185 4.3 13.7387 4.3 13.759C4.3 13.7793 4.3 13.7996 4.3 13.8199C4.3 13.8402 4.3 13.8605 4.3 13.8808C4.3 13.9012 4.3 13.9215 4.3 13.9419C4.3 13.9623 4.3 13.9827 4.3 14.0031C4.3 14.0235 4.3 14.0439 4.3 14.0644C4.3 14.0848 4.3 14.1053 4.3 14.1258C4.3 14.1463 4.3 14.1668 4.3 14.1873C4.3 14.2078 4.3 14.2284 4.3 14.2489C4.3 14.2695 4.3 14.2901 4.3 14.3106C4.3 14.3312 4.3 14.3518 4.3 14.3725C4.3 14.3931 4.3 14.4137 4.3 14.4344C4.3 14.4551 4.3 14.4758 4.3 14.4965C4.3 14.5172 4.3 14.5379 4.3 14.5586C4.3 14.5793 4.3 14.6001 4.3 14.6209C4.3 14.6416 4.3 14.6624 4.3 14.6832C4.3 14.704 4.3 14.7249 4.3 14.7457C4.3 14.7665 4.3 14.7874 4.3 14.8083C4.3 14.8291 4.3 14.85 4.3 14.871C4.3 14.8919 4.3 14.9128 4.3 14.9337C4.3 14.9547 4.3 14.9756 4.3 14.9966C4.3 15.0176 4.3 15.0386 4.3 15.0596C4.3 15.0806 4.3 15.1017 4.3 15.1227C4.3 15.1438 4.3 15.1648 4.3 15.1859C4.3 15.207 4.3 15.2281 4.3 15.2492C4.3 15.2704 4.3 15.2915 4.3 15.3127C4.3 15.3338 4.3 15.355 4.3 15.3762C4.3 15.3974 4.3 15.4186 4.3 15.4398C4.3 15.461 4.3 15.4823 4.3 15.5035C4.3 15.5248 4.3 15.5461 4.3 15.5673C4.3 15.5886 4.3 15.61 4.3 15.6313C4.3 15.6526 4.3 15.674 4.3 15.6953C4.3 15.7167 4.3 15.7381 4.3 15.7595C4.3 15.7808 4.3 15.8023 4.3 15.8237C4.3 15.8451 4.3 15.8666 4.3 15.888C4.3 15.9095 4.3 15.931 4.3 15.9525C4.3 15.974 4.3 15.9955 4.3 16.017C4.3 16.0386 4.3 16.0601 4.3 16.0817C4.3 16.1033 4.3 16.1248 4.3 16.1464C4.3 16.168 4.3 16.1897 4.3 16.2113C4.3 16.2329 4.3 16.2546 4.3 16.2762C4.3 16.2979 4.3 16.3196 4.3 16.3413C4.3 16.363 4.3 16.3847 4.3 16.4065C4.3 16.4282 4.3 16.45 4.3 16.4717C4.3 16.4935 4.3 16.5153 4.3 16.5371C4.3 16.5589 4.3 16.5807 4.3 16.6025C4.3 16.6244 4.3 16.6462 4.3 16.6681C4.3 16.69 4.3 16.7119 4.3 16.7338C4.3 16.7557 4.3 16.7776 4.3 16.7995C4.3 16.8215 4.3 16.8434 4.3 16.8654C4.3 16.8874 4.3 16.9093 4.3 16.9314C4.3 16.9534 4.3 16.9754 4.3 16.9974C4.3 17.0195 4.3 17.0415 4.3 17.0636C4.3 17.0856 4.3 17.1077 4.3 17.1298C4.3 17.1519 4.3 17.1741 4.3 17.1962C4.3 17.2183 4.3 17.2405 4.3 17.2627C4.3 17.2848 4.3 17.307 4.3 17.3292C4.3 17.3514 4.3 17.3736 4.3 17.3959C4.3 17.4181 4.3 17.4403 4.3 17.4626C4.3 17.4849 4.3 17.5072 4.3 17.5295C4.3 17.5518 4.3 17.5741 4.3 17.5964C4.3 17.6188 4.3 17.6411 4.3 17.6635C4.3 17.6858 4.3 17.7082 4.3 17.7306C4.3 17.753 4.3 17.7754 4.3 17.7979C4.3 17.8203 4.3 17.8427 4.3 17.8652C4.3 17.8877 4.3 17.9101 4.3 17.9326C4.3 17.9551 4.3 17.9776 4.3 18.0002C4.3 18.0227 4.3 18.0452 4.3 18.0678C4.3 18.0904 4.3 18.1129 4.3 18.1355C4.3 18.1581 4.3 18.1807 4.3 18.2033C4.3 18.226 4.3 18.2486 4.3 18.2713C4.3 18.2939 4.3 18.3166 4.3 18.3393C4.3 18.362 4.3 18.3847 4.3 18.4074C4.3 18.4301 4.3 18.4528 4.3 18.4756C4.3 18.4984 4.3 18.5211 4.3 18.5439C4.3 18.5667 4.3 18.5895 4.3 18.6123C4.3 18.6351 4.3 18.6579 4.3 18.6808C4.3 18.7036 4.3 18.7265 4.3 18.7494C4.3 18.7723 4.3 18.7952 4.3 18.8181C4.3 18.841 4.3 18.8639 4.3 18.8868C4.3 18.9098 4.3 18.9327 4.3 18.9557C4.3 18.9787 4.3 19.0017 4.3 19.0247C4.3 19.0477 4.3 19.0707 4.3 19.0937C4.3 19.1168 4.3 19.1398 4.3 19.1629C4.3 19.186 4.3 19.209 4.3 19.2321C4.3 19.2552 4.3 19.2784 4.3 19.3015C4.3 19.3246 4.3 19.3478 4.3 19.3709C4.3 19.3941 4.3 19.4173 4.3 19.4404C4.3 19.4636 4.3 19.4868 4.3 19.5101C4.3 19.5333 4.3 19.5565 4.3 19.5798C4.3 19.603 4.3 19.6263 4.3 19.6496C4.3 19.6729 4.3 19.6962 4.3 19.7195C4.3 19.7428 4.3 19.7661 4.3 19.7895C4.3 19.8128 4.3 19.8362 4.3 19.8596C4.3 19.8829 4.3 19.9063 4.3 19.9297C4.3 19.9531 4.3 19.9766 4.3 20H5.3C5.3 19.9766 5.3 19.9531 5.3 19.9297C5.3 19.9063 5.3 19.8829 5.3 19.8596C5.3 19.8362 5.3 19.8128 5.3 19.7895C5.3 19.7661 5.3 19.7428 5.3 19.7195C5.3 19.6962 5.3 19.6729 5.3 19.6496C5.3 19.6263 5.3 19.603 5.3 19.5798C5.3 19.5565 5.3 19.5333 5.3 19.5101C5.3 19.4868 5.3 19.4636 5.3 19.4404C5.3 19.4173 5.3 19.3941 5.3 19.3709C5.3 19.3478 5.3 19.3246 5.3 19.3015C5.3 19.2784 5.3 19.2552 5.3 19.2321C5.3 19.209 5.3 19.186 5.3 19.1629C5.3 19.1398 5.3 19.1168 5.3 19.0937C5.3 19.0707 5.3 19.0477 5.3 19.0247C5.3 19.0017 5.3 18.9787 5.3 18.9557C5.3 18.9327 5.3 18.9098 5.3 18.8868C5.3 18.8639 5.3 18.841 5.3 18.8181C5.3 18.7952 5.3 18.7723 5.3 18.7494C5.3 18.7265 5.3 18.7036 5.3 18.6808C5.3 18.6579 5.3 18.6351 5.3 18.6123C5.3 18.5895 5.3 18.5667 5.3 18.5439C5.3 18.5211 5.3 18.4984 5.3 18.4756C5.3 18.4528 5.3 18.4301 5.3 18.4074C5.3 18.3847 5.3 18.362 5.3 18.3393C5.3 18.3166 5.3 18.2939 5.3 18.2713C5.3 18.2486 5.3 18.226 5.3 18.2033C5.3 18.1807 5.3 18.1581 5.3 18.1355C5.3 18.1129 5.3 18.0904 5.3 18.0678C5.3 18.0452 5.3 18.0227 5.3 18.0002C5.3 17.9776 5.3 17.9551 5.3 17.9326C5.3 17.9101 5.3 17.8877 5.3 17.8652C5.3 17.8427 5.3 17.8203 5.3 17.7979C5.3 17.7754 5.3 17.753 5.3 17.7306C5.3 17.7082 5.3 17.6858 5.3 17.6635C5.3 17.6411 5.3 17.6188 5.3 17.5964C5.3 17.5741 5.3 17.5518 5.3 17.5295C5.3 17.5072 5.3 17.4849 5.3 17.4626C5.3 17.4403 5.3 17.4181 5.3 17.3959C5.3 17.3736 5.3 17.3514 5.3 17.3292C5.3 17.307 5.3 17.2848 5.3 17.2627C5.3 17.2405 5.3 17.2183 5.3 17.1962C5.3 17.1741 5.3 17.1519 5.3 17.1298C5.3 17.1077 5.3 17.0856 5.3 17.0636C5.3 17.0415 5.3 17.0195 5.3 16.9974C5.3 16.9754 5.3 16.9534 5.3 16.9314C5.3 16.9093 5.3 16.8874 5.3 16.8654C5.3 16.8434 5.3 16.8215 5.3 16.7995C5.3 16.7776 5.3 16.7557 5.3 16.7338C5.3 16.7119 5.3 16.69 5.3 16.6681C5.3 16.6462 5.3 16.6244 5.3 16.6025C5.3 16.5807 5.3 16.5589 5.3 16.5371C5.3 16.5153 5.3 16.4935 5.3 16.4717C5.3 16.45 5.3 16.4282 5.3 16.4065C5.3 16.3847 5.3 16.363 5.3 16.3413C5.3 16.3196 5.3 16.2979 5.3 16.2762C5.3 16.2546 5.3 16.2329 5.3 16.2113C5.3 16.1897 5.3 16.168 5.3 16.1464C5.3 16.1248 5.3 16.1033 5.3 16.0817C5.3 16.0601 5.3 16.0386 5.3 16.017C5.3 15.9955 5.3 15.974 5.3 15.9525C5.3 15.931 5.3 15.9095 5.3 15.888C5.3 15.8666 5.3 15.8451 5.3 15.8237C5.3 15.8023 5.3 15.7808 5.3 15.7595C5.3 15.7381 5.3 15.7167 5.3 15.6953C5.3 15.674 5.3 15.6526 5.3 15.6313C5.3 15.61 5.3 15.5886 5.3 15.5673C5.3 15.5461 5.3 15.5248 5.3 15.5035C5.3 15.4823 5.3 15.461 5.3 15.4398C5.3 15.4186 5.3 15.3974 5.3 15.3762C5.3 15.355 5.3 15.3338 5.3 15.3127C5.3 15.2915 5.3 15.2704 5.3 15.2492C5.3 15.2281 5.3 15.207 5.3 15.1859C5.3 15.1648 5.3 15.1438 5.3 15.1227C5.3 15.1017 5.3 15.0806 5.3 15.0596C5.3 15.0386 5.3 15.0176 5.3 14.9966C5.3 14.9756 5.3 14.9547 5.3 14.9337C5.3 14.9128 5.3 14.8919 5.3 14.871C5.3 14.85 5.3 14.8291 5.3 14.8083C5.3 14.7874 5.3 14.7665 5.3 14.7457C5.3 14.7249 5.3 14.704 5.3 14.6832C5.3 14.6624 5.3 14.6416 5.3 14.6209C5.3 14.6001 5.3 14.5793 5.3 14.5586C5.3 14.5379 5.3 14.5172 5.3 14.4965C5.3 14.4758 5.3 14.4551 5.3 14.4344C5.3 14.4137 5.3 14.3931 5.3 14.3725C5.3 14.3518 5.3 14.3312 5.3 14.3106C5.3 14.2901 5.3 14.2695 5.3 14.2489C5.3 14.2284 5.3 14.2078 5.3 14.1873C5.3 14.1668 5.3 14.1463 5.3 14.1258C5.3 14.1053 5.3 14.0848 5.3 14.0644C5.3 14.0439 5.3 14.0235 5.3 14.0031C5.3 13.9827 5.3 13.9623 5.3 13.9419C5.3 13.9215 5.3 13.9012 5.3 13.8808C5.3 13.8605 5.3 13.8402 5.3 13.8199C5.3 13.7996 5.3 13.7793 5.3 13.759C5.3 13.7387 5.3 13.7185 5.3 13.6982C5.3 13.678 5.3 13.6578 5.3 13.6376C5.3 13.6174 5.3 13.5972 5.3 13.5771C5.3 13.5569 5.3 13.5368 5.3 13.5166C5.3 13.4965 5.3 13.4764 5.3 13.4563C5.3 13.4362 5.3 13.4162 5.3 13.3961C5.3 13.3761 5.3 13.356 5.3 13.336C5.3 13.316 5.3 13.296 5.3 13.276C5.3 13.256 5.3 13.2361 5.3 13.2161C5.3 13.1962 5.3 13.1763 5.3 13.1564C5.3 13.1365 5.3 13.1166 5.3 13.0967C5.3 13.0768 5.3 13.057 5.3 13.0372C5.3 13.0173 5.3 12.9975 5.3 12.9777C5.3 12.9579 5.3 12.9382 5.3 12.9184C5.3 12.8986 5.3 12.8789 5.3 12.8592C5.3 12.8395 5.3 12.8198 5.3 12.8001C5.3 12.7804 5.3 12.7607 5.3 12.7411C5.3 12.7214 5.3 12.7018 5.3 12.6822C5.3 12.6626 5.3 12.643 5.3 12.6234C5.3 12.6039 5.3 12.5843 5.3 12.5648C5.3 12.5452 5.3 12.5257 5.3 12.5062C5.3 12.4867 5.3 12.4673 5.3 12.4478C5.3 12.4283 5.3 12.4089 5.3 12.3895C5.3 12.3701 5.3 12.3507 5.3 12.3313C5.3 12.3119 5.3 12.2925 5.3 12.2732C5.3 12.2538 5.3 12.2345 5.3 12.2152C5.3 12.1959 5.3 12.1766 5.3 12.1573C5.3 12.1381 5.3 12.1188 5.3 12.0996C5.3 12.0803 5.3 12.0611 5.3 12.0419C5.3 12.0227 5.3 12.0036 5.3 11.9844C5.3 11.9652 5.3 11.9461 5.3 11.927C5.3 11.9079 5.3 11.8888 5.3 11.8697C5.3 11.8506 5.3 11.8315 5.3 11.8125C5.3 11.7935 5.3 11.7744 5.3 11.7554C5.3 11.7364 5.3 11.7174 5.3 11.6985C5.3 11.6795 5.3 11.6606 5.3 11.6416C5.3 11.6227 5.3 11.6038 5.3 11.5849C5.3 11.566 5.3 11.5471 5.3 11.5283C5.3 11.5094 5.3 11.4906 5.3 11.4718C5.3 11.453 5.3 11.4342 5.3 11.4154C5.3 11.3966 5.3 11.3779 5.3 11.3591C5.3 11.3404 5.3 11.3217 5.3 11.303C5.3 11.2843 5.3 11.2656 5.3 11.247C5.3 11.2283 5.3 11.2097 5.3 11.191C5.3 11.1724 5.3 11.1538 5.3 11.1352C5.3 11.1167 5.3 11.0981 5.3 11.0796C5.3 11.061 5.3 11.0425 5.3 11.024C5.3 11.0055 5.3 10.987 5.3 10.9685C5.3 10.9501 5.3 10.9316 5.3 10.9132C5.3 10.8948 5.3 10.8764 5.3 10.858C5.3 10.8396 5.3 10.8212 5.3 10.8029C5.3 10.7845 5.3 10.7662 5.3 10.7479C5.3 10.7296 5.3 10.7113 5.3 10.693C5.3 10.6748 5.3 10.6565 5.3 10.6383C5.3 10.6201 5.3 10.6019 5.3 10.5837C5.3 10.5655 5.3 10.5473 5.3 10.5292C5.3 10.511 5.3 10.4929 5.3 10.4748C5.3 10.4567 5.3 10.4386 5.3 10.4205C5.3 10.4024 5.3 10.3844 5.3 10.3664C5.3 10.3483 5.3 10.3303 5.3 10.3123C5.3 10.2943 5.3 10.2764 5.3 10.2584C5.3 10.2405 5.3 10.2225 5.3 10.2046C5.3 10.1867 5.3 10.1688 5.3 10.1509C5.3 10.1331 5.3 10.1152 5.3 10.0974C5.3 10.0796 5.3 10.0617 5.3 10.0439C5.3 10.0262 5.3 10.0084 5.3 9.99063C5.3 9.97288 5.3 9.95515 5.3 9.93744C5.3 9.91973 5.3 9.90203 5.3 9.88436C5.3 9.86669 5.3 9.84904 5.3 9.83141C5.3 9.81378 5.3 9.79617 5.3 9.77858C5.3 9.76099 5.3 9.74341 5.3 9.72586C5.3 9.70831 5.3 9.69078 5.3 9.67327C5.3 9.65576 5.3 9.63827 5.3 9.62081C5.3 9.60334 5.3 9.58589 5.3 9.56846C5.3 9.55103 5.3 9.53362 5.3 9.51623C5.3 9.49884 5.3 9.48148 5.3 9.46413C5.3 9.44678 5.3 9.42945 5.3 9.41215C5.3 9.39484 5.3 9.37755 5.3 9.36029C5.3 9.34302 5.3 9.32578 5.3 9.30855C5.3 9.29133 5.3 9.27412 5.3 9.25694C5.3 9.23975 5.3 9.22259 5.3 9.20545C5.3 9.1883 5.3 9.17118 5.3 9.15408C5.3 9.13698 5.3 9.11989 5.3 9.10283C5.3 9.08577 5.3 9.06873 5.3 9.05171C5.3 9.03469 5.3 9.01769 5.3 9.00071C5.3 8.98373 5.3 8.96678 5.3 8.94984C5.3 8.9329 5.3 8.91598 5.3 8.89909C5.3 8.88219 5.3 8.86532 5.3 8.84846C5.3 8.83161 5.3 8.81477 5.3 8.79796C5.3 8.78115 5.3 8.76435 5.3 8.74758C5.3 8.73081 5.3 8.71406 5.3 8.69733C5.3 8.6806 5.3 8.66389 5.3 8.6472C5.3 8.63051 5.3 8.61384 5.3 8.5972C5.3 8.58055 5.3 8.56392 5.3 8.54732C5.3 8.53071 5.3 8.51413 5.3 8.49757C5.3 8.481 5.3 8.46446 5.3 8.44794C5.3 8.43142 5.3 8.41492 5.3 8.39844C5.3 8.38196 5.3 8.3655 5.3 8.34906C5.3 8.33263 5.3 8.31621 5.3 8.29981C5.3 8.28342 5.3 8.26704 5.3 8.25069C5.3 8.23434 5.3 8.218 5.3 8.20169C5.3 8.18538 5.3 8.16909 5.3 8.15282C5.3 8.13655 5.3 8.12031 5.3 8.10408C5.3 8.08785 5.3 8.07165 5.3 8.05546C5.3 8.03928 5.3 8.02312 5.3 8.00697C5.3 7.99083 5.3 7.97471 5.3 7.95861C5.3 7.94251 5.3 7.92643 5.3 7.91038C5.3 7.89432 5.3 7.87829 5.3 7.86227C5.3 7.84626 5.3 7.83026 5.3 7.81429C5.3 7.79832 5.3 7.78237 5.3 7.76644C5.3 7.75051 5.3 7.7346 5.3 7.71872C5.3 7.70283 5.3 7.68697 5.3 7.67112C5.3 7.65528 5.3 7.63946 5.3 7.62366C5.3 7.60786 5.3 7.59208 5.3 7.57632C5.3 7.56056 5.3 7.54483 5.3 7.52911C5.3 7.5134 5.3 7.49771 5.3 7.48203C5.3 7.46636 5.3 7.45071 5.3 7.43508C5.3 7.41946 5.3 7.40385 5.3 7.38826C5.3 7.37268 5.3 7.35712 5.3 7.34157C5.3 7.32603 5.3 7.31051 5.3 7.29501C5.3 7.27951 5.3 7.26404 5.3 7.24858C5.3 7.23313 5.3 7.21769 5.3 7.20228C5.3 7.18687 5.3 7.17148 5.3 7.15611C5.3 7.14074 5.3 7.1254 5.3 7.11007C5.3 7.09475 5.3 7.07944 5.3 7.06416C5.3 7.04888 5.3 7.03362 5.3 7.01838C5.3 7.00315 5.3 6.98793 5.3 6.97274C5.3 6.95754 5.3 6.94237 5.3 6.92722C5.3 6.91207 5.3 6.89694 5.3 6.88184C5.3 6.86673 5.3 6.85165 5.3 6.83658C5.3 6.82152 5.3 6.80648 5.3 6.79146C5.3 6.77644 5.3 6.76145 5.3 6.74647C5.3 6.7315 5.3 6.71655 5.3 6.70162C5.3 6.68669 5.3 6.67178 5.3 6.65689C5.3 6.64201 5.3 6.62714 5.3 6.6123C5.3 6.59746 5.3 6.58264 5.3 6.56784C5.3 6.55304 5.3 6.53827 5.3 6.52351C5.3 6.50876 5.3 6.49403 5.3 6.47932C5.3 6.46461 5.3 6.44993 5.3 6.43526C5.3 6.4206 5.3 6.40595 5.3 6.39133C5.3 6.37671 5.3 6.36212 5.3 6.34754C5.3 6.33297 5.3 6.31841 5.3 6.30388C5.3 6.28935 5.3 6.27484 5.3 6.26036C5.3 6.24587 5.3 6.23141 5.3 6.21696C5.3 6.20252 5.3 6.1881 5.3 6.17371C5.3 6.15931 5.3 6.14494 5.3 6.13058C5.3 6.11623 5.3 6.1019 5.3 6.0876C5.3 6.07329 5.3 6.059 5.3 6.04474C5.3 6.03048 5.3 6.01624 5.3 6.00202C5.3 5.98781 5.3 5.97361 5.3 5.95944C5.3 5.94527 5.3 5.93112 5.3 5.91699C5.3 5.90287 5.3 5.88876 5.3 5.87468C5.3 5.8606 5.3 5.84654 5.3 5.83251C5.3 5.81847 5.3 5.80446 5.3 5.79046C5.3 5.77647 5.3 5.76251 5.3 5.74856C5.3 5.73461 5.3 5.72069 5.3 5.70679C5.3 5.69289 5.3 5.67901 5.3 5.66516C5.3 5.65131 5.3 5.63747 5.3 5.62366C5.3 5.60986 5.3 5.59607 5.3 5.58231C5.3 5.56854 5.3 5.5548 5.3 5.54109C5.3 5.52737 5.3 5.51367 5.3 5.5C5.3 5.48633 5.3 5.47268 5.3 5.45905C5.3 5.44543 5.3 5.43182 5.3 5.41824C5.3 5.40466 5.3 5.39111 5.3 5.37757C5.3 5.36404 5.3 5.35053 5.3 5.33704C5.3 5.32355 5.3 5.31009 5.3 5.29664C5.3 5.2832 5.3 5.26978 5.3 5.25639C5.3 5.24299 5.3 5.22962 5.3 5.21627C5.3 5.20292 5.3 5.18959 5.3 5.17629C5.3 5.16298 5.3 5.1497 5.3 5.13644C5.3 5.12319 5.3 5.10995 5.3 5.09674C5.3 5.08353 5.3 5.07034 5.3 5.05718C5.3 5.04401 5.3 5.03087 5.3 5.01775C5.3 5.00463 5.3 4.99154 5.3 4.97847C5.3 4.9654 5.3 4.95235 5.3 4.93932C5.3 4.9263 5.3 4.9133 5.3 4.90032C5.3 4.88734 5.3 4.87438 5.3 4.86145C5.3 4.84852 5.3 4.83561 5.3 4.82273C5.3 4.80984 5.3 4.79698 5.3 4.78414C5.3 4.7713 5.3 4.75849 5.3 4.7457C5.3 4.7329 5.3 4.72014 5.3 4.70739C5.3 4.69465 5.3 4.68193 5.3 4.66923C5.3 4.65653 5.3 4.64386 5.3 4.63121C5.3 4.61856 5.3 4.60593 5.3 4.59333C5.3 4.58072 5.3 4.56814 5.3 4.55559C5.3 4.54303 5.3 4.5305 5.3 4.51799C5.3 4.50548 5.3 4.493 5.3 4.48054C5.3 4.46807 5.3 4.45564 5.3 4.44322C5.3 4.43081 5.3 4.41842 5.3 4.40605C5.3 4.39368 5.3 4.38134 5.3 4.36902C5.3 4.3567 5.3 4.34441 5.3 4.33213C5.3 4.31986 5.3 4.30762 5.3 4.29539C5.3 4.28317 5.3 4.27097 5.3 4.25879C5.3 4.24661 5.3 4.23446 5.3 4.22233C5.3 4.2102 5.3 4.1981 5.3 4.18602C5.3 4.17394 5.3 4.16188 5.3 4.14985C5.3 4.13781 5.3 4.1258 5.3 4.11382C5.3 4.10183 5.3 4.08987 5.3 4.07793C5.3 4.066 5.3 4.05408 5.3 4.04219C5.3 4.0303 5.3 4.01844 5.3 4.0066C5.3 3.99476 5.3 3.98294 5.3 3.97115C5.3 3.95935 5.3 3.94758 5.3 3.93584C5.3 3.92409 5.3 3.91237 5.3 3.90068C5.3 3.88898 5.3 3.87731 5.3 3.86566C5.3 3.85401 5.3 3.84239 5.3 3.83079C5.3 3.81919 5.3 3.80761 5.3 3.79606C5.3 3.78451 5.3 3.77298 5.3 3.76148C5.3 3.74997 5.3 3.7385 5.3 3.72704C5.3 3.71559 5.3 3.70416 5.3 3.69275C5.3 3.68134 5.3 3.66996 5.3 3.6586C5.3 3.64725 5.3 3.63591 5.3 3.62461C5.3 3.6133 5.3 3.60201 5.3 3.59075C5.3 3.57949 5.3 3.56826 5.3 3.55705C5.3 3.54584 5.3 3.53465 5.3 3.52349C5.3 3.51233 5.3 3.50119 5.3 3.49008C5.3 3.47896 5.3 3.46787 5.3 3.45681C5.3 3.44575 5.3 3.43471 5.3 3.42369C5.3 3.41268 5.3 3.40169 5.3 3.39072C5.3 3.37975 5.3 3.36881 5.3 3.3579C5.3 3.34698 5.3 3.33609 5.3 3.32522C5.3 3.31435 5.3 3.30351 5.3 3.29269C5.3 3.28187 5.3 3.27108 5.3 3.26031C5.3 3.24954 5.3 3.2388 5.3 3.22808C5.3 3.21736 5.3 3.20667 5.3 3.196C5.3 3.18533 5.3 3.17468 5.3 3.16406C5.3 3.15344 5.3 3.14285 5.3 3.13228C5.3 3.12171 5.3 3.11116 5.3 3.10064C5.3 3.09012 5.3 3.07962 5.3 3.06915C5.3 3.05868 5.3 3.04824 5.3 3.03781C5.3 3.02739 5.3 3.017 5.3 3.00662C5.3 2.99625 5.3 2.98591 5.3 2.97559C5.3 2.96526 5.3 2.95497 5.3 2.9447C5.3 2.93442 5.3 2.92418 5.3 2.91396C5.3 2.90373 5.3 2.89354 5.3 2.88337C5.3 2.8732 5.3 2.86305 5.3 2.85293C5.3 2.84281 5.3 2.83271 5.3 2.82264C5.3 2.81257 5.3 2.80252 5.3 2.7925C5.3 2.78248 5.3 2.77249 5.3 2.76252C5.3 2.75254 5.3 2.7426 5.3 2.73268C5.3 2.72276 5.3 2.71286 5.3 2.703C5.3 2.69313 5.3 2.68328 5.3 2.67346C5.3 2.66364 5.3 2.65385 5.3 2.64408C5.3 2.63431 5.3 2.62457 5.3 2.61485C5.3 2.60513 5.3 2.59544 5.3 2.58577C5.3 2.57611 5.3 2.56647 5.3 2.55685C5.3 2.54723 5.3 2.53764 5.3 2.52808C5.3 2.51851 5.3 2.50897 5.3 2.49946C5.3 2.48994 5.3 2.48045 5.3 2.47099C5.3 2.46152 5.3 2.45209 5.3 2.44267C5.3 2.43326 5.3 2.42387 5.3 2.41451C5.3 2.40515 5.3 2.39581 5.3 2.3865C5.3 2.37719 5.3 2.36791 5.3 2.35865C5.3 2.34939 5.3 2.34015 5.3 2.33095C5.3 2.32174 5.3 2.31256 5.3 2.3034C5.3 2.29424 5.3 2.28511 5.3 2.27601C5.3 2.2669 5.3 2.25782 5.3 2.24877C5.3 2.23971 5.3 2.23068 5.3 2.22168C5.3 2.21268 5.3 2.2037 5.3 2.19475C5.3 2.1858 5.3 2.17687 5.3 2.16797C5.3 2.15907 5.3 2.1502 5.3 2.14135C5.3 2.1325 5.3 2.12368 5.3 2.11489C5.3 2.10609 5.3 2.09732 5.3 2.08857C5.3 2.07983 5.3 2.07111 5.3 2.06242C5.3 2.05373 5.3 2.04506 5.3 2.03642C5.3 2.02778 5.3 2.01916 5.3 2.01057C5.3 2.00199 5.3 1.99342 5.3 1.98489C5.3 1.97635 5.3 1.96784 5.3 1.95935C5.3 1.95087 5.3 1.94241 5.3 1.93398C5.3 1.92555 5.3 1.91714 5.3 1.90876C5.3 1.90038 5.3 1.89202 5.3 1.8837C5.3 1.87537 5.3 1.86707 5.3 1.85879C5.3 1.85051 5.3 1.84226 5.3 1.83404C5.3 1.82582 5.3 1.81762 5.3 1.80945C5.3 1.80128 5.3 1.79313 5.3 1.78501C5.3 1.7769 5.3 1.7688 5.3 1.76074C5.3 1.75267 5.3 1.74463 5.3 1.73662C5.3 1.7286 5.3 1.72062 5.3 1.71266C5.3 1.7047 5.3 1.69676 5.3 1.68885C5.3 1.68094 5.3 1.67306 5.3 1.66521C5.3 1.65735 5.3 1.64952 5.3 1.64172C5.3 1.63392 5.3 1.62614 5.3 1.61839C5.3 1.61064 5.3 1.60292 5.3 1.59522C5.3 1.58753 5.3 1.57986 5.3 1.57221C5.3 1.56457 5.3 1.55695 5.3 1.54936C5.3 1.54177 5.3 1.53421 5.3 1.52667C5.3 1.51913 5.3 1.51162 5.3 1.50414C5.3 1.49665 5.3 1.4892 5.3 1.48177C5.3 1.47433 5.3 1.46693 5.3 1.45955C5.3 1.45218 5.3 1.44482 5.3 1.4375C5.3 1.43018 5.3 1.42288 5.3 1.41561C5.3 1.40834 5.3 1.40109 5.3 1.39388C5.3 1.38666 5.3 1.37947 5.3 1.3723C5.3 1.36514 5.3 1.358 5.3 1.35089C5.3 1.34378 5.3 1.3367 5.3 1.32964C5.3 1.32259 5.3 1.31556 5.3 1.30855C5.3 1.30155 5.3 1.29458 5.3 1.28763C5.3 1.28068 5.3 1.27376 5.3 1.26686C5.3 1.25997 5.3 1.2531 5.3 1.24626C5.3 1.23942 5.3 1.2326 5.3 1.22581C5.3 1.21903 5.3 1.21227 5.3 1.20553C5.3 1.1988 5.3 1.19209 5.3 1.18542C5.3 1.17874 5.3 1.17208 5.3 1.16546C5.3 1.15883 5.3 1.15224 5.3 1.14567C5.3 1.1391 5.3 1.13255 5.3 1.12604C5.3 1.11952 5.3 1.11303 5.3 1.10657C5.3 1.10011 5.3 1.09367 5.3 1.08726C5.3 1.08086 5.3 1.07447 5.3 1.06812C5.3 1.06177 5.3 1.05544 5.3 1.04914C5.3 1.04284 5.3 1.03657 5.3 1.03033C5.3 1.02408 5.3 1.01787 5.3 1.01168C5.3 1.00549 5.3 0.999327 5.3 0.993192C5.3 0.987057 5.3 0.980949 5.3 0.974869C5.3 0.968789 5.3 0.962736 5.3 0.956711C5.3 0.950686 5.3 0.944688 5.3 0.938717C5.3 0.932747 5.3 0.926804 5.3 0.920888C5.3 0.914973 5.3 0.909085 5.3 0.903224C5.3 0.897364 5.3 0.891531 5.3 0.885725C5.3 0.87992 5.3 0.874142 5.3 0.868391C5.3 0.862641 5.3 0.856918 5.3 0.851223C5.3 0.845528 5.3 0.83986 5.3 0.83422C5.3 0.82858 5.3 0.822968 5.3 0.817383C5.3 0.811798 5.3 0.806241 5.3 0.800712C5.3 0.795182 5.3 0.789681 5.3 0.784207C5.3 0.778733 5.3 0.773287 5.3 0.767868C5.3 0.76245 5.3 0.757059 5.3 0.751696C5.3 0.746333 5.3 0.740998 5.3 0.73569C5.3 0.730383 5.3 0.725103 5.3 0.719851C5.3 0.7146 5.3 0.709376 5.3 0.70418C5.3 0.698984 5.3 0.693815 5.3 0.688675C5.3 0.683535 5.3 0.678422 5.3 0.673338C5.3 0.668253 5.3 0.663197 5.3 0.658168C5.3 0.65314 5.3 0.648139 5.3 0.643166C5.3 0.638194 5.3 0.633249 5.3 0.628332C5.3 0.623416 5.3 0.618527 5.3 0.613666C5.3 0.608806 5.3 0.603973 5.3 0.599169C5.3 0.594364 5.3 0.589588 5.3 0.584839C5.3 0.580091 5.3 0.575371 5.3 0.570679C5.3 0.565987 5.3 0.561323 5.3 0.556687C5.3 0.552051 5.3 0.547444 5.3 0.542864C5.3 0.538285 5.3 0.533734 5.3 0.529211C5.3 0.524688 5.3 0.520193 5.3 0.515726C5.3 0.51126 5.3 0.506821 5.3 0.502411C5.3 0.498001 5.3 0.49362 5.3 0.489266C5.3 0.484913 5.3 0.480588 5.3 0.476291C5.3 0.471994 5.3 0.467726 5.3 0.463486C5.3 0.459246 5.3 0.455034 5.3 0.450851C5.3 0.446668 5.3 0.442513 5.3 0.438386C5.3 0.43426 5.3 0.430162 5.3 0.426092C5.3 0.422023 5.3 0.417982 5.3 0.413969C5.3 0.409957 5.3 0.405972 5.3 0.402017C5.3 0.398061 5.3 0.394134 5.3 0.390236C5.3 0.386337 5.3 0.382467 5.3 0.378626C5.3 0.374785 5.3 0.370972 5.3 0.367188C5.3 0.363403 5.3 0.359648 5.3 0.355921C5.3 0.352194 5.3 0.348496 5.3 0.344826C5.3 0.341156 5.3 0.337515 5.3 0.333903C5.3 0.330291 5.3 0.326707 5.3 0.323153C5.3 0.319598 5.3 0.316072 5.3 0.312574C5.3 0.309077 5.3 0.305608 5.3 0.302169C5.3 0.298729 5.3 0.295318 5.3 0.291936C5.3 0.288554 5.3 0.2852 5.3 0.281876C5.3 0.278551 5.3 0.275256 5.3 0.271989C5.3 0.268722 5.3 0.265484 5.3 0.262275C5.3 0.259066 5.3 0.255886 5.3 0.252735C5.3 0.249584 5.3 0.246461 5.3 0.243368C5.3 0.240275 5.3 0.237211 5.3 0.234175C5.3 0.23114 5.3 0.228134 5.3 0.225157C5.3 0.222179 5.3 0.219231 5.3 0.216312C5.3 0.213393 5.3 0.210503 5.3 0.207642C5.3 0.204781 5.3 0.201949 5.3 0.199146C5.3 0.196343 5.3 0.193569 5.3 0.190825C5.3 0.18808 5.3 0.185365 5.3 0.182679C5.3 0.179992 5.3 0.177335 5.3 0.174707C5.3 0.17208 5.3 0.169481 5.3 0.166912C5.3 0.164342 5.3 0.161802 5.3 0.159291C5.3 0.15678 5.3 0.154299 5.3 0.151846C5.3 0.149394 5.3 0.146971 5.3 0.144577C5.3 0.142183 5.3 0.139819 5.3 0.137484C5.3 0.135149 5.3 0.132843 5.3 0.130567C5.3 0.128291 5.3 0.126044 5.3 0.123826C5.3 0.121609 5.3 0.119421 5.3 0.117262C5.3 0.115103 5.3 0.112974 5.3 0.110874C5.3 0.108775 5.3 0.106704 5.3 0.104664C5.3 0.102623 5.3 0.100612 5.3 0.0986299C5.3 0.0966482 5.3 0.0946961 5.3 0.0927735C5.3 0.0908509 5.3 0.0889578 5.3 0.0870944C5.3 0.0852309 5.3 0.0833971 5.3 0.0815928C5.3 0.0797886 5.3 0.078014 5.3 0.076269C5.3 0.0745241 5.3 0.0728088 5.3 0.0711231C5.3 0.0694375 5.3 0.0677816 5.3 0.0661554C5.3 0.0645291 5.3 0.0629326 5.3 0.0613659C5.3 0.0597991 5.3 0.0582621 5.3 0.0567548C5.3 0.0552476 5.3 0.0537701 5.3 0.0523224C5.3 0.0508747 5.3 0.0494568 5.3 0.0480688C5.3 0.0466808 5.3 0.0453225 5.3 0.0439942C5.3 0.0426658 5.3 0.0413674 5.3 0.0400988C5.3 0.0388302 5.3 0.0375915 5.3 0.0363827C5.3 0.0351739 5.3 0.033995 5.3 0.0328461C5.3 0.0316972 5.3 0.0305783 5.3 0.0294893C5.3 0.0284003 5.3 0.0273413 5.3 0.0263123C5.3 0.0252833 5.3 0.0242844 5.3 0.0233154C5.3 0.0223465 5.3 0.0214076 5.3 0.0204988C5.3 0.01959 5.3 0.0187112 5.3 0.0178626C5.3 0.0170139 5.3 0.0161954 5.3 0.0154069C5.3 0.0146185 5.3 0.0138602 5.3 0.0131321C5.3 0.012404 5.3 0.011706 5.3 0.0110382C5.3 0.0103704 5.3 0.00973284 5.3 0.00912547C5.3 0.0085181 5.3 0.00794095 5.3 0.00739405C5.3 0.00684714 5.3 0.00633049 5.3 0.00584412C5.3 0.00535774 5.3 0.00490165 5.3 0.00447586C5.3 0.00405008 5.3 0.0036546 5.3 0.00328946C5.3 0.00292432 5.3 0.00258952 5.3 0.00228509C5.3 0.00198066 5.3 0.0017066 5.3 0.00146294C5.3 0.00121927 5.3 0.00100601 5.3 0.00082317C5.3 0.000640333 5.3 0.000487924 5.3 0.000365973C5.3 0.000244021 5.3 0.000152528 5.3 9.1523e-05C5.3 3.05176e-05 5.3 0 4.8 0ZM4.3 20C4.3 23.1863 5.84988 25.5814 8.14113 27.1616C10.4174 28.7315 13.4226 29.5 16.4 29.5C19.3774 29.5 22.3826 28.7315 24.6589 27.1616C26.9501 25.5814 28.5 23.1863 28.5 20H27.5C27.5 22.8137 26.1499 24.9186 24.0911 26.3384C22.0174 27.7685 19.2226 28.5 16.4 28.5C13.5774 28.5 10.7826 27.7685 8.70887 26.3384C6.65012 24.9186 5.3 22.8137 5.3 20H4.3ZM28.5 20C28.5 19.9766 28.5 19.9531 28.5 19.9297C28.5 19.9063 28.5 19.8829 28.5 19.8596C28.5 19.8362 28.5 19.8128 28.5 19.7895C28.5 19.7661 28.5 19.7428 28.5 19.7195C28.5 19.6962 28.5 19.6729 28.5 19.6496C28.5 19.6263 28.5 19.603 28.5 19.5798C28.5 19.5565 28.5 19.5333 28.5 19.5101C28.5 19.4868 28.5 19.4636 28.5 19.4404C28.5 19.4173 28.5 19.3941 28.5 19.3709C28.5 19.3478 28.5 19.3246 28.5 19.3015C28.5 19.2784 28.5 19.2552 28.5 19.2321C28.5 19.209 28.5 19.186 28.5 19.1629C28.5 19.1398 28.5 19.1168 28.5 19.0937C28.5 19.0707 28.5 19.0477 28.5 19.0247C28.5 19.0017 28.5 18.9787 28.5 18.9557C28.5 18.9327 28.5 18.9098 28.5 18.8868C28.5 18.8639 28.5 18.841 28.5 18.8181C28.5 18.7952 28.5 18.7723 28.5 18.7494C28.5 18.7265 28.5 18.7036 28.5 18.6808C28.5 18.6579 28.5 18.6351 28.5 18.6123C28.5 18.5895 28.5 18.5667 28.5 18.5439C28.5 18.5211 28.5 18.4984 28.5 18.4756C28.5 18.4528 28.5 18.4301 28.5 18.4074C28.5 18.3847 28.5 18.362 28.5 18.3393C28.5 18.3166 28.5 18.2939 28.5 18.2713C28.5 18.2486 28.5 18.226 28.5 18.2033C28.5 18.1807 28.5 18.1581 28.5 18.1355C28.5 18.1129 28.5 18.0904 28.5 18.0678C28.5 18.0452 28.5 18.0227 28.5 18.0002C28.5 17.9776 28.5 17.9551 28.5 17.9326C28.5 17.9101 28.5 17.8877 28.5 17.8652C28.5 17.8427 28.5 17.8203 28.5 17.7979C28.5 17.7754 28.5 17.753 28.5 17.7306C28.5 17.7082 28.5 17.6858 28.5 17.6635C28.5 17.6411 28.5 17.6188 28.5 17.5964C28.5 17.5741 28.5 17.5518 28.5 17.5295C28.5 17.5072 28.5 17.4849 28.5 17.4626C28.5 17.4403 28.5 17.4181 28.5 17.3959C28.5 17.3736 28.5 17.3514 28.5 17.3292C28.5 17.307 28.5 17.2848 28.5 17.2627C28.5 17.2405 28.5 17.2183 28.5 17.1962C28.5 17.1741 28.5 17.1519 28.5 17.1298C28.5 17.1077 28.5 17.0856 28.5 17.0636C28.5 17.0415 28.5 17.0195 28.5 16.9974C28.5 16.9754 28.5 16.9534 28.5 16.9314C28.5 16.9093 28.5 16.8874 28.5 16.8654C28.5 16.8434 28.5 16.8215 28.5 16.7995C28.5 16.7776 28.5 16.7557 28.5 16.7338C28.5 16.7119 28.5 16.69 28.5 16.6681C28.5 16.6462 28.5 16.6244 28.5 16.6025C28.5 16.5807 28.5 16.5589 28.5 16.5371C28.5 16.5153 28.5 16.4935 28.5 16.4717C28.5 16.45 28.5 16.4282 28.5 16.4065C28.5 16.3847 28.5 16.363 28.5 16.3413C28.5 16.3196 28.5 16.2979 28.5 16.2762C28.5 16.2546 28.5 16.2329 28.5 16.2113C28.5 16.1897 28.5 16.168 28.5 16.1464C28.5 16.1248 28.5 16.1033 28.5 16.0817C28.5 16.0601 28.5 16.0386 28.5 16.017C28.5 15.9955 28.5 15.974 28.5 15.9525C28.5 15.931 28.5 15.9095 28.5 15.888C28.5 15.8666 28.5 15.8451 28.5 15.8237C28.5 15.8023 28.5 15.7808 28.5 15.7595C28.5 15.7381 28.5 15.7167 28.5 15.6953C28.5 15.674 28.5 15.6526 28.5 15.6313C28.5 15.61 28.5 15.5886 28.5 15.5673C28.5 15.5461 28.5 15.5248 28.5 15.5035C28.5 15.4823 28.5 15.461 28.5 15.4398C28.5 15.4186 28.5 15.3974 28.5 15.3762C28.5 15.355 28.5 15.3338 28.5 15.3127C28.5 15.2915 28.5 15.2704 28.5 15.2492C28.5 15.2281 28.5 15.207 28.5 15.1859C28.5 15.1648 28.5 15.1438 28.5 15.1227C28.5 15.1017 28.5 15.0806 28.5 15.0596C28.5 15.0386 28.5 15.0176 28.5 14.9966C28.5 14.9756 28.5 14.9547 28.5 14.9337C28.5 14.9128 28.5 14.8919 28.5 14.871C28.5 14.85 28.5 14.8291 28.5 14.8083C28.5 14.7874 28.5 14.7665 28.5 14.7457C28.5 14.7249 28.5 14.704 28.5 14.6832C28.5 14.6624 28.5 14.6416 28.5 14.6209C28.5 14.6001 28.5 14.5793 28.5 14.5586C28.5 14.5379 28.5 14.5172 28.5 14.4965C28.5 14.4758 28.5 14.4551 28.5 14.4344C28.5 14.4137 28.5 14.3931 28.5 14.3725C28.5 14.3518 28.5 14.3312 28.5 14.3106C28.5 14.2901 28.5 14.2695 28.5 14.2489C28.5 14.2284 28.5 14.2078 28.5 14.1873C28.5 14.1668 28.5 14.1463 28.5 14.1258C28.5 14.1053 28.5 14.0848 28.5 14.0644C28.5 14.0439 28.5 14.0235 28.5 14.0031C28.5 13.9827 28.5 13.9623 28.5 13.9419C28.5 13.9215 28.5 13.9012 28.5 13.8808C28.5 13.8605 28.5 13.8402 28.5 13.8199C28.5 13.7996 28.5 13.7793 28.5 13.759C28.5 13.7387 28.5 13.7185 28.5 13.6982C28.5 13.678 28.5 13.6578 28.5 13.6376C28.5 13.6174 28.5 13.5972 28.5 13.5771C28.5 13.5569 28.5 13.5368 28.5 13.5166C28.5 13.4965 28.5 13.4764 28.5 13.4563C28.5 13.4362 28.5 13.4162 28.5 13.3961C28.5 13.3761 28.5 13.356 28.5 13.336C28.5 13.316 28.5 13.296 28.5 13.276C28.5 13.256 28.5 13.2361 28.5 13.2161C28.5 13.1962 28.5 13.1763 28.5 13.1564C28.5 13.1365 28.5 13.1166 28.5 13.0967C28.5 13.0768 28.5 13.057 28.5 13.0372C28.5 13.0173 28.5 12.9975 28.5 12.9777C28.5 12.9579 28.5 12.9382 28.5 12.9184C28.5 12.8986 28.5 12.8789 28.5 12.8592C28.5 12.8395 28.5 12.8198 28.5 12.8001C28.5 12.7804 28.5 12.7607 28.5 12.7411C28.5 12.7214 28.5 12.7018 28.5 12.6822C28.5 12.6626 28.5 12.643 28.5 12.6234C28.5 12.6039 28.5 12.5843 28.5 12.5648C28.5 12.5452 28.5 12.5257 28.5 12.5062C28.5 12.4867 28.5 12.4673 28.5 12.4478C28.5 12.4283 28.5 12.4089 28.5 12.3895C28.5 12.3701 28.5 12.3507 28.5 12.3313C28.5 12.3119 28.5 12.2925 28.5 12.2732C28.5 12.2538 28.5 12.2345 28.5 12.2152C28.5 12.1959 28.5 12.1766 28.5 12.1573C28.5 12.1381 28.5 12.1188 28.5 12.0996C28.5 12.0803 28.5 12.0611 28.5 12.0419C28.5 12.0227 28.5 12.0036 28.5 11.9844C28.5 11.9652 28.5 11.9461 28.5 11.927C28.5 11.9079 28.5 11.8888 28.5 11.8697C28.5 11.8506 28.5 11.8315 28.5 11.8125C28.5 11.7935 28.5 11.7744 28.5 11.7554C28.5 11.7364 28.5 11.7174 28.5 11.6985C28.5 11.6795 28.5 11.6606 28.5 11.6416C28.5 11.6227 28.5 11.6038 28.5 11.5849C28.5 11.566 28.5 11.5471 28.5 11.5283C28.5 11.5094 28.5 11.4906 28.5 11.4718C28.5 11.453 28.5 11.4342 28.5 11.4154C28.5 11.3966 28.5 11.3779 28.5 11.3591C28.5 11.3404 28.5 11.3217 28.5 11.303C28.5 11.2843 28.5 11.2656 28.5 11.247C28.5 11.2283 28.5 11.2097 28.5 11.191C28.5 11.1724 28.5 11.1538 28.5 11.1352C28.5 11.1167 28.5 11.0981 28.5 11.0796C28.5 11.061 28.5 11.0425 28.5 11.024C28.5 11.0055 28.5 10.987 28.5 10.9685C28.5 10.9501 28.5 10.9316 28.5 10.9132C28.5 10.8948 28.5 10.8764 28.5 10.858C28.5 10.8396 28.5 10.8212 28.5 10.8029C28.5 10.7845 28.5 10.7662 28.5 10.7479C28.5 10.7296 28.5 10.7113 28.5 10.693C28.5 10.6748 28.5 10.6565 28.5 10.6383C28.5 10.6201 28.5 10.6019 28.5 10.5837C28.5 10.5655 28.5 10.5473 28.5 10.5292C28.5 10.511 28.5 10.4929 28.5 10.4748C28.5 10.4567 28.5 10.4386 28.5 10.4205C28.5 10.4024 28.5 10.3844 28.5 10.3664C28.5 10.3483 28.5 10.3303 28.5 10.3123C28.5 10.2943 28.5 10.2764 28.5 10.2584C28.5 10.2405 28.5 10.2225 28.5 10.2046C28.5 10.1867 28.5 10.1688 28.5 10.1509C28.5 10.1331 28.5 10.1152 28.5 10.0974C28.5 10.0796 28.5 10.0617 28.5 10.0439C28.5 10.0262 28.5 10.0084 28.5 9.99063C28.5 9.97288 28.5 9.95515 28.5 9.93744C28.5 9.91973 28.5 9.90203 28.5 9.88436C28.5 9.86669 28.5 9.84904 28.5 9.83141C28.5 9.81378 28.5 9.79617 28.5 9.77858C28.5 9.76099 28.5 9.74341 28.5 9.72586C28.5 9.70831 28.5 9.69078 28.5 9.67327C28.5 9.65576 28.5 9.63827 28.5 9.62081C28.5 9.60334 28.5 9.58589 28.5 9.56846C28.5 9.55103 28.5 9.53362 28.5 9.51623C28.5 9.49884 28.5 9.48148 28.5 9.46413C28.5 9.44678 28.5 9.42945 28.5 9.41215C28.5 9.39484 28.5 9.37755 28.5 9.36029C28.5 9.34302 28.5 9.32578 28.5 9.30855C28.5 9.29133 28.5 9.27412 28.5 9.25694C28.5 9.23975 28.5 9.22259 28.5 9.20545C28.5 9.1883 28.5 9.17118 28.5 9.15408C28.5 9.13698 28.5 9.11989 28.5 9.10283C28.5 9.08577 28.5 9.06873 28.5 9.05171C28.5 9.03469 28.5 9.01769 28.5 9.00071C28.5 8.98373 28.5 8.96678 28.5 8.94984C28.5 8.9329 28.5 8.91598 28.5 8.89909C28.5 8.88219 28.5 8.86532 28.5 8.84846C28.5 8.83161 28.5 8.81477 28.5 8.79796C28.5 8.78115 28.5 8.76435 28.5 8.74758C28.5 8.73081 28.5 8.71406 28.5 8.69733C28.5 8.6806 28.5 8.66389 28.5 8.6472C28.5 8.63051 28.5 8.61384 28.5 8.5972C28.5 8.58055 28.5 8.56392 28.5 8.54732C28.5 8.53071 28.5 8.51413 28.5 8.49757C28.5 8.481 28.5 8.46446 28.5 8.44794C28.5 8.43142 28.5 8.41492 28.5 8.39844C28.5 8.38196 28.5 8.3655 28.5 8.34906C28.5 8.33263 28.5 8.31621 28.5 8.29981C28.5 8.28342 28.5 8.26704 28.5 8.25069C28.5 8.23434 28.5 8.218 28.5 8.20169C28.5 8.18538 28.5 8.16909 28.5 8.15282C28.5 8.13655 28.5 8.12031 28.5 8.10408C28.5 8.08785 28.5 8.07165 28.5 8.05546C28.5 8.03928 28.5 8.02312 28.5 8.00697C28.5 7.99083 28.5 7.97471 28.5 7.95861C28.5 7.94251 28.5 7.92643 28.5 7.91038C28.5 7.89432 28.5 7.87829 28.5 7.86227C28.5 7.84626 28.5 7.83026 28.5 7.81429C28.5 7.79832 28.5 7.78237 28.5 7.76644C28.5 7.75051 28.5 7.7346 28.5 7.71872C28.5 7.70283 28.5 7.68697 28.5 7.67112C28.5 7.65528 28.5 7.63946 28.5 7.62366C28.5 7.60786 28.5 7.59208 28.5 7.57632C28.5 7.56056 28.5 7.54483 28.5 7.52911C28.5 7.5134 28.5 7.49771 28.5 7.48203C28.5 7.46636 28.5 7.45071 28.5 7.43508C28.5 7.41946 28.5 7.40385 28.5 7.38826C28.5 7.37268 28.5 7.35712 28.5 7.34157C28.5 7.32603 28.5 7.31051 28.5 7.29501C28.5 7.27951 28.5 7.26404 28.5 7.24858C28.5 7.23313 28.5 7.21769 28.5 7.20228C28.5 7.18687 28.5 7.17148 28.5 7.15611C28.5 7.14074 28.5 7.1254 28.5 7.11007C28.5 7.09475 28.5 7.07944 28.5 7.06416C28.5 7.04888 28.5 7.03362 28.5 7.01838C28.5 7.00315 28.5 6.98793 28.5 6.97274C28.5 6.95754 28.5 6.94237 28.5 6.92722C28.5 6.91207 28.5 6.89694 28.5 6.88184C28.5 6.86673 28.5 6.85165 28.5 6.83658C28.5 6.82152 28.5 6.80648 28.5 6.79146C28.5 6.77644 28.5 6.76145 28.5 6.74647C28.5 6.7315 28.5 6.71655 28.5 6.70162C28.5 6.68669 28.5 6.67178 28.5 6.65689C28.5 6.64201 28.5 6.62714 28.5 6.6123C28.5 6.59746 28.5 6.58264 28.5 6.56784C28.5 6.55304 28.5 6.53827 28.5 6.52351C28.5 6.50876 28.5 6.49403 28.5 6.47932C28.5 6.46461 28.5 6.44993 28.5 6.43526C28.5 6.4206 28.5 6.40595 28.5 6.39133C28.5 6.37671 28.5 6.36212 28.5 6.34754C28.5 6.33297 28.5 6.31841 28.5 6.30388C28.5 6.28935 28.5 6.27484 28.5 6.26036C28.5 6.24587 28.5 6.23141 28.5 6.21696C28.5 6.20252 28.5 6.1881 28.5 6.17371C28.5 6.15931 28.5 6.14494 28.5 6.13058C28.5 6.11623 28.5 6.1019 28.5 6.0876C28.5 6.07329 28.5 6.059 28.5 6.04474C28.5 6.03048 28.5 6.01624 28.5 6.00202C28.5 5.98781 28.5 5.97361 28.5 5.95944C28.5 5.94527 28.5 5.93112 28.5 5.91699C28.5 5.90287 28.5 5.88876 28.5 5.87468C28.5 5.8606 28.5 5.84654 28.5 5.83251C28.5 5.81847 28.5 5.80446 28.5 5.79046C28.5 5.77647 28.5 5.76251 28.5 5.74856C28.5 5.73461 28.5 5.72069 28.5 5.70679C28.5 5.69289 28.5 5.67901 28.5 5.66516C28.5 5.65131 28.5 5.63747 28.5 5.62366C28.5 5.60986 28.5 5.59607 28.5 5.58231C28.5 5.56854 28.5 5.5548 28.5 5.54109C28.5 5.52737 28.5 5.51367 28.5 5.5C28.5 5.48633 28.5 5.47268 28.5 5.45905C28.5 5.44543 28.5 5.43182 28.5 5.41824C28.5 5.40466 28.5 5.39111 28.5 5.37757C28.5 5.36404 28.5 5.35053 28.5 5.33704C28.5 5.32355 28.5 5.31009 28.5 5.29664C28.5 5.2832 28.5 5.26978 28.5 5.25639C28.5 5.24299 28.5 5.22962 28.5 5.21627C28.5 5.20292 28.5 5.18959 28.5 5.17629C28.5 5.16298 28.5 5.1497 28.5 5.13644C28.5 5.12319 28.5 5.10995 28.5 5.09674C28.5 5.08353 28.5 5.07034 28.5 5.05718C28.5 5.04401 28.5 5.03087 28.5 5.01775C28.5 5.00463 28.5 4.99154 28.5 4.97847C28.5 4.9654 28.5 4.95235 28.5 4.93932C28.5 4.9263 28.5 4.9133 28.5 4.90032C28.5 4.88734 28.5 4.87438 28.5 4.86145C28.5 4.84852 28.5 4.83561 28.5 4.82273C28.5 4.80984 28.5 4.79698 28.5 4.78414C28.5 4.7713 28.5 4.75849 28.5 4.7457C28.5 4.7329 28.5 4.72014 28.5 4.70739C28.5 4.69465 28.5 4.68193 28.5 4.66923C28.5 4.65653 28.5 4.64386 28.5 4.63121C28.5 4.61856 28.5 4.60593 28.5 4.59333C28.5 4.58072 28.5 4.56814 28.5 4.55559C28.5 4.54303 28.5 4.5305 28.5 4.51799C28.5 4.50548 28.5 4.493 28.5 4.48054C28.5 4.46807 28.5 4.45564 28.5 4.44322C28.5 4.43081 28.5 4.41842 28.5 4.40605C28.5 4.39368 28.5 4.38134 28.5 4.36902C28.5 4.3567 28.5 4.34441 28.5 4.33213C28.5 4.31986 28.5 4.30762 28.5 4.29539C28.5 4.28317 28.5 4.27097 28.5 4.25879C28.5 4.24661 28.5 4.23446 28.5 4.22233C28.5 4.2102 28.5 4.1981 28.5 4.18602C28.5 4.17394 28.5 4.16188 28.5 4.14985C28.5 4.13781 28.5 4.1258 28.5 4.11382C28.5 4.10183 28.5 4.08987 28.5 4.07793C28.5 4.066 28.5 4.05408 28.5 4.04219C28.5 4.0303 28.5 4.01844 28.5 4.0066C28.5 3.99476 28.5 3.98294 28.5 3.97115C28.5 3.95935 28.5 3.94758 28.5 3.93584C28.5 3.92409 28.5 3.91237 28.5 3.90068C28.5 3.88898 28.5 3.87731 28.5 3.86566C28.5 3.85401 28.5 3.84239 28.5 3.83079C28.5 3.81919 28.5 3.80761 28.5 3.79606C28.5 3.78451 28.5 3.77298 28.5 3.76148C28.5 3.74997 28.5 3.7385 28.5 3.72704C28.5 3.71559 28.5 3.70416 28.5 3.69275C28.5 3.68134 28.5 3.66996 28.5 3.6586C28.5 3.64725 28.5 3.63591 28.5 3.62461C28.5 3.6133 28.5 3.60201 28.5 3.59075C28.5 3.57949 28.5 3.56826 28.5 3.55705C28.5 3.54584 28.5 3.53465 28.5 3.52349C28.5 3.51233 28.5 3.50119 28.5 3.49008C28.5 3.47896 28.5 3.46787 28.5 3.45681C28.5 3.44575 28.5 3.43471 28.5 3.42369C28.5 3.41268 28.5 3.40169 28.5 3.39072C28.5 3.37975 28.5 3.36881 28.5 3.3579C28.5 3.34698 28.5 3.33609 28.5 3.32522C28.5 3.31435 28.5 3.30351 28.5 3.29269C28.5 3.28187 28.5 3.27108 28.5 3.26031C28.5 3.24954 28.5 3.2388 28.5 3.22808C28.5 3.21736 28.5 3.20667 28.5 3.196C28.5 3.18533 28.5 3.17468 28.5 3.16406C28.5 3.15344 28.5 3.14285 28.5 3.13228C28.5 3.12171 28.5 3.11116 28.5 3.10064C28.5 3.09012 28.5 3.07962 28.5 3.06915C28.5 3.05868 28.5 3.04824 28.5 3.03781C28.5 3.02739 28.5 3.017 28.5 3.00662C28.5 2.99625 28.5 2.98591 28.5 2.97559C28.5 2.96526 28.5 2.95497 28.5 2.9447C28.5 2.93442 28.5 2.92418 28.5 2.91396C28.5 2.90373 28.5 2.89354 28.5 2.88337C28.5 2.8732 28.5 2.86305 28.5 2.85293C28.5 2.84281 28.5 2.83271 28.5 2.82264C28.5 2.81257 28.5 2.80252 28.5 2.7925C28.5 2.78248 28.5 2.77249 28.5 2.76252C28.5 2.75254 28.5 2.7426 28.5 2.73268C28.5 2.72276 28.5 2.71286 28.5 2.703C28.5 2.69313 28.5 2.68328 28.5 2.67346C28.5 2.66364 28.5 2.65385 28.5 2.64408C28.5 2.63431 28.5 2.62457 28.5 2.61485C28.5 2.60513 28.5 2.59544 28.5 2.58577C28.5 2.57611 28.5 2.56647 28.5 2.55685C28.5 2.54723 28.5 2.53764 28.5 2.52808C28.5 2.51851 28.5 2.50897 28.5 2.49946C28.5 2.48994 28.5 2.48045 28.5 2.47099C28.5 2.46152 28.5 2.45209 28.5 2.44267C28.5 2.43326 28.5 2.42387 28.5 2.41451C28.5 2.40515 28.5 2.39581 28.5 2.3865C28.5 2.37719 28.5 2.36791 28.5 2.35865C28.5 2.34939 28.5 2.34015 28.5 2.33095C28.5 2.32174 28.5 2.31256 28.5 2.3034C28.5 2.29424 28.5 2.28511 28.5 2.27601C28.5 2.2669 28.5 2.25782 28.5 2.24877C28.5 2.23971 28.5 2.23068 28.5 2.22168C28.5 2.21268 28.5 2.2037 28.5 2.19475C28.5 2.1858 28.5 2.17687 28.5 2.16797C28.5 2.15907 28.5 2.1502 28.5 2.14135C28.5 2.1325 28.5 2.12368 28.5 2.11489C28.5 2.10609 28.5 2.09732 28.5 2.08857C28.5 2.07983 28.5 2.07111 28.5 2.06242C28.5 2.05373 28.5 2.04506 28.5 2.03642C28.5 2.02778 28.5 2.01916 28.5 2.01057C28.5 2.00199 28.5 1.99342 28.5 1.98489C28.5 1.97635 28.5 1.96784 28.5 1.95935C28.5 1.95087 28.5 1.94241 28.5 1.93398C28.5 1.92555 28.5 1.91714 28.5 1.90876C28.5 1.90038 28.5 1.89202 28.5 1.8837C28.5 1.87537 28.5 1.86707 28.5 1.85879C28.5 1.85051 28.5 1.84226 28.5 1.83404C28.5 1.82582 28.5 1.81762 28.5 1.80945C28.5 1.80128 28.5 1.79313 28.5 1.78501C28.5 1.7769 28.5 1.7688 28.5 1.76074C28.5 1.75267 28.5 1.74463 28.5 1.73662C28.5 1.7286 28.5 1.72062 28.5 1.71266C28.5 1.7047 28.5 1.69676 28.5 1.68885C28.5 1.68094 28.5 1.67306 28.5 1.66521C28.5 1.65735 28.5 1.64952 28.5 1.64172C28.5 1.63392 28.5 1.62614 28.5 1.61839C28.5 1.61064 28.5 1.60292 28.5 1.59522C28.5 1.58753 28.5 1.57986 28.5 1.57221C28.5 1.56457 28.5 1.55695 28.5 1.54936C28.5 1.54177 28.5 1.53421 28.5 1.52667C28.5 1.51913 28.5 1.51162 28.5 1.50414C28.5 1.49665 28.5 1.4892 28.5 1.48177C28.5 1.47433 28.5 1.46693 28.5 1.45955C28.5 1.45218 28.5 1.44482 28.5 1.4375C28.5 1.43018 28.5 1.42288 28.5 1.41561C28.5 1.40834 28.5 1.40109 28.5 1.39388C28.5 1.38666 28.5 1.37947 28.5 1.3723C28.5 1.36514 28.5 1.358 28.5 1.35089C28.5 1.34378 28.5 1.3367 28.5 1.32964C28.5 1.32259 28.5 1.31556 28.5 1.30855C28.5 1.30155 28.5 1.29458 28.5 1.28763C28.5 1.28068 28.5 1.27376 28.5 1.26686C28.5 1.25997 28.5 1.2531 28.5 1.24626C28.5 1.23942 28.5 1.2326 28.5 1.22581C28.5 1.21903 28.5 1.21227 28.5 1.20553C28.5 1.1988 28.5 1.19209 28.5 1.18542C28.5 1.17874 28.5 1.17208 28.5 1.16546C28.5 1.15883 28.5 1.15224 28.5 1.14567C28.5 1.1391 28.5 1.13255 28.5 1.12604C28.5 1.11952 28.5 1.11303 28.5 1.10657C28.5 1.10011 28.5 1.09367 28.5 1.08726C28.5 1.08086 28.5 1.07447 28.5 1.06812C28.5 1.06177 28.5 1.05544 28.5 1.04914C28.5 1.04284 28.5 1.03657 28.5 1.03033C28.5 1.02408 28.5 1.01787 28.5 1.01168C28.5 1.00549 28.5 0.999327 28.5 0.993192C28.5 0.987057 28.5 0.980949 28.5 0.974869C28.5 0.968789 28.5 0.962736 28.5 0.956711C28.5 0.950686 28.5 0.944688 28.5 0.938717C28.5 0.932747 28.5 0.926804 28.5 0.920888C28.5 0.914973 28.5 0.909085 28.5 0.903224C28.5 0.897364 28.5 0.891531 28.5 0.885725C28.5 0.87992 28.5 0.874142 28.5 0.868391C28.5 0.862641 28.5 0.856918 28.5 0.851223C28.5 0.845528 28.5 0.83986 28.5 0.83422C28.5 0.82858 28.5 0.822968 28.5 0.817383C28.5 0.811798 28.5 0.806241 28.5 0.800712C28.5 0.795182 28.5 0.789681 28.5 0.784207C28.5 0.778733 28.5 0.773287 28.5 0.767868C28.5 0.76245 28.5 0.757059 28.5 0.751696C28.5 0.746333 28.5 0.740998 28.5 0.73569C28.5 0.730383 28.5 0.725103 28.5 0.719851C28.5 0.7146 28.5 0.709376 28.5 0.70418C28.5 0.698984 28.5 0.693815 28.5 0.688675C28.5 0.683535 28.5 0.678422 28.5 0.673338C28.5 0.668253 28.5 0.663197 28.5 0.658168C28.5 0.65314 28.5 0.648139 28.5 0.643166C28.5 0.638194 28.5 0.633249 28.5 0.628332C28.5 0.623416 28.5 0.618527 28.5 0.613666C28.5 0.608806 28.5 0.603973 28.5 0.599169C28.5 0.594364 28.5 0.589588 28.5 0.584839C28.5 0.580091 28.5 0.575371 28.5 0.570679C28.5 0.565987 28.5 0.561323 28.5 0.556687C28.5 0.552051 28.5 0.547444 28.5 0.542864C28.5 0.538285 28.5 0.533734 28.5 0.529211C28.5 0.524688 28.5 0.520193 28.5 0.515726C28.5 0.51126 28.5 0.506821 28.5 0.502411C28.5 0.498001 28.5 0.49362 28.5 0.489266C28.5 0.484913 28.5 0.480588 28.5 0.476291C28.5 0.471994 28.5 0.467726 28.5 0.463486C28.5 0.459246 28.5 0.455034 28.5 0.450851C28.5 0.446668 28.5 0.442513 28.5 0.438386C28.5 0.43426 28.5 0.430162 28.5 0.426092C28.5 0.422023 28.5 0.417982 28.5 0.413969C28.5 0.409957 28.5 0.405972 28.5 0.402017C28.5 0.398061 28.5 0.394134 28.5 0.390236C28.5 0.386337 28.5 0.382467 28.5 0.378626C28.5 0.374785 28.5 0.370972 28.5 0.367188C28.5 0.363403 28.5 0.359648 28.5 0.355921C28.5 0.352194 28.5 0.348496 28.5 0.344826C28.5 0.341156 28.5 0.337515 28.5 0.333903C28.5 0.330291 28.5 0.326707 28.5 0.323153C28.5 0.319598 28.5 0.316072 28.5 0.312574C28.5 0.309077 28.5 0.305608 28.5 0.302169C28.5 0.298729 28.5 0.295318 28.5 0.291936C28.5 0.288554 28.5 0.2852 28.5 0.281876C28.5 0.278551 28.5 0.275256 28.5 0.271989C28.5 0.268722 28.5 0.265484 28.5 0.262275C28.5 0.259066 28.5 0.255886 28.5 0.252735C28.5 0.249584 28.5 0.246461 28.5 0.243368C28.5 0.240275 28.5 0.237211 28.5 0.234175C28.5 0.23114 28.5 0.228134 28.5 0.225157C28.5 0.222179 28.5 0.219231 28.5 0.216312C28.5 0.213393 28.5 0.210503 28.5 0.207642C28.5 0.204781 28.5 0.201949 28.5 0.199146C28.5 0.196343 28.5 0.193569 28.5 0.190825C28.5 0.18808 28.5 0.185365 28.5 0.182679C28.5 0.179992 28.5 0.177335 28.5 0.174707C28.5 0.17208 28.5 0.169481 28.5 0.166912C28.5 0.164342 28.5 0.161802 28.5 0.159291C28.5 0.15678 28.5 0.154299 28.5 0.151846C28.5 0.149394 28.5 0.146971 28.5 0.144577C28.5 0.142183 28.5 0.139819 28.5 0.137484C28.5 0.135149 28.5 0.132843 28.5 0.130567C28.5 0.128291 28.5 0.126044 28.5 0.123826C28.5 0.121609 28.5 0.119421 28.5 0.117262C28.5 0.115103 28.5 0.112974 28.5 0.110874C28.5 0.108775 28.5 0.106704 28.5 0.104664C28.5 0.102623 28.5 0.100612 28.5 0.0986299C28.5 0.0966482 28.5 0.0946961 28.5 0.0927735C28.5 0.0908509 28.5 0.0889578 28.5 0.0870944C28.5 0.0852309 28.5 0.0833971 28.5 0.0815928C28.5 0.0797886 28.5 0.078014 28.5 0.076269C28.5 0.0745241 28.5 0.0728088 28.5 0.0711231C28.5 0.0694375 28.5 0.0677816 28.5 0.0661554C28.5 0.0645291 28.5 0.0629326 28.5 0.0613659C28.5 0.0597991 28.5 0.0582621 28.5 0.0567548C28.5 0.0552476 28.5 0.0537701 28.5 0.0523224C28.5 0.0508747 28.5 0.0494568 28.5 0.0480688C28.5 0.0466808 28.5 0.0453225 28.5 0.0439942C28.5 0.0426658 28.5 0.0413674 28.5 0.0400988C28.5 0.0388302 28.5 0.0375915 28.5 0.0363827C28.5 0.0351739 28.5 0.033995 28.5 0.0328461C28.5 0.0316972 28.5 0.0305783 28.5 0.0294893C28.5 0.0284003 28.5 0.0273413 28.5 0.0263123C28.5 0.0252833 28.5 0.0242844 28.5 0.0233154C28.5 0.0223465 28.5 0.0214076 28.5 0.0204988C28.5 0.01959 28.5 0.0187112 28.5 0.0178626C28.5 0.0170139 28.5 0.0161954 28.5 0.0154069C28.5 0.0146185 28.5 0.0138602 28.5 0.0131321C28.5 0.012404 28.5 0.011706 28.5 0.0110382C28.5 0.0103704 28.5 0.00973284 28.5 0.00912547C28.5 0.0085181 28.5 0.00794095 28.5 0.00739405C28.5 0.00684714 28.5 0.00633049 28.5 0.00584412C28.5 0.00535774 28.5 0.00490165 28.5 0.00447586C28.5 0.00405008 28.5 0.0036546 28.5 0.00328946C28.5 0.00292432 28.5 0.00258952 28.5 0.00228509C28.5 0.00198066 28.5 0.0017066 28.5 0.00146294C28.5 0.00121927 28.5 0.00100601 28.5 0.00082317C28.5 0.000640333 28.5 0.000487924 28.5 0.000365973C28.5 0.000244021 28.5 0.000152528 28.5 9.1523e-05C28.5 3.05176e-05 28.5 0 28 0C27.5 0 27.5 3.05176e-05 27.5 9.1523e-05C27.5 0.000152528 27.5 0.000244021 27.5 0.000365973C27.5 0.000487924 27.5 0.000640333 27.5 0.00082317C27.5 0.00100601 27.5 0.00121927 27.5 0.00146294C27.5 0.0017066 27.5 0.00198066 27.5 0.00228509C27.5 0.00258952 27.5 0.00292432 27.5 0.00328946C27.5 0.0036546 27.5 0.00405008 27.5 0.00447586C27.5 0.00490165 27.5 0.00535774 27.5 0.00584412C27.5 0.00633049 27.5 0.00684714 27.5 0.00739405C27.5 0.00794095 27.5 0.0085181 27.5 0.00912547C27.5 0.00973284 27.5 0.0103704 27.5 0.0110382C27.5 0.011706 27.5 0.012404 27.5 0.0131321C27.5 0.0138602 27.5 0.0146185 27.5 0.0154069C27.5 0.0161954 27.5 0.0170139 27.5 0.0178626C27.5 0.0187112 27.5 0.01959 27.5 0.0204988C27.5 0.0214076 27.5 0.0223465 27.5 0.0233154C27.5 0.0242844 27.5 0.0252833 27.5 0.0263123C27.5 0.0273413 27.5 0.0284003 27.5 0.0294893C27.5 0.0305783 27.5 0.0316972 27.5 0.0328461C27.5 0.033995 27.5 0.0351739 27.5 0.0363827C27.5 0.0375915 27.5 0.0388302 27.5 0.0400988C27.5 0.0413674 27.5 0.0426658 27.5 0.0439942C27.5 0.0453225 27.5 0.0466808 27.5 0.0480688C27.5 0.0494568 27.5 0.0508747 27.5 0.0523224C27.5 0.0537701 27.5 0.0552476 27.5 0.0567548C27.5 0.0582621 27.5 0.0597991 27.5 0.0613659C27.5 0.0629326 27.5 0.0645291 27.5 0.0661554C27.5 0.0677816 27.5 0.0694375 27.5 0.0711231C27.5 0.0728088 27.5 0.0745241 27.5 0.076269C27.5 0.078014 27.5 0.0797886 27.5 0.0815928C27.5 0.0833971 27.5 0.0852309 27.5 0.0870944C27.5 0.0889578 27.5 0.0908509 27.5 0.0927735C27.5 0.0946961 27.5 0.0966482 27.5 0.0986299C27.5 0.100612 27.5 0.102623 27.5 0.104664C27.5 0.106704 27.5 0.108775 27.5 0.110874C27.5 0.112974 27.5 0.115103 27.5 0.117262C27.5 0.119421 27.5 0.121609 27.5 0.123826C27.5 0.126044 27.5 0.128291 27.5 0.130567C27.5 0.132843 27.5 0.135149 27.5 0.137484C27.5 0.139819 27.5 0.142183 27.5 0.144577C27.5 0.146971 27.5 0.149394 27.5 0.151846C27.5 0.154299 27.5 0.15678 27.5 0.159291C27.5 0.161802 27.5 0.164342 27.5 0.166912C27.5 0.169481 27.5 0.17208 27.5 0.174707C27.5 0.177335 27.5 0.179992 27.5 0.182679C27.5 0.185365 27.5 0.18808 27.5 0.190825C27.5 0.193569 27.5 0.196343 27.5 0.199146C27.5 0.201949 27.5 0.204781 27.5 0.207642C27.5 0.210503 27.5 0.213393 27.5 0.216312C27.5 0.219231 27.5 0.222179 27.5 0.225157C27.5 0.228134 27.5 0.23114 27.5 0.234175C27.5 0.237211 27.5 0.240275 27.5 0.243368C27.5 0.246461 27.5 0.249584 27.5 0.252735C27.5 0.255886 27.5 0.259066 27.5 0.262275C27.5 0.265484 27.5 0.268722 27.5 0.271989C27.5 0.275256 27.5 0.278551 27.5 0.281876C27.5 0.2852 27.5 0.288554 27.5 0.291936C27.5 0.295318 27.5 0.298729 27.5 0.302169C27.5 0.305608 27.5 0.309077 27.5 0.312574C27.5 0.316072 27.5 0.319598 27.5 0.323153C27.5 0.326707 27.5 0.330291 27.5 0.333903C27.5 0.337515 27.5 0.341156 27.5 0.344826C27.5 0.348496 27.5 0.352194 27.5 0.355921C27.5 0.359648 27.5 0.363403 27.5 0.367188C27.5 0.370972 27.5 0.374785 27.5 0.378626C27.5 0.382467 27.5 0.386337 27.5 0.390236C27.5 0.394134 27.5 0.398061 27.5 0.402017C27.5 0.405972 27.5 0.409957 27.5 0.413969C27.5 0.417982 27.5 0.422023 27.5 0.426092C27.5 0.430162 27.5 0.43426 27.5 0.438386C27.5 0.442513 27.5 0.446668 27.5 0.450851C27.5 0.455034 27.5 0.459246 27.5 0.463486C27.5 0.467726 27.5 0.471994 27.5 0.476291C27.5 0.480588 27.5 0.484913 27.5 0.489266C27.5 0.49362 27.5 0.498001 27.5 0.502411C27.5 0.506821 27.5 0.51126 27.5 0.515726C27.5 0.520193 27.5 0.524688 27.5 0.529211C27.5 0.533734 27.5 0.538285 27.5 0.542864C27.5 0.547444 27.5 0.552051 27.5 0.556687C27.5 0.561323 27.5 0.565987 27.5 0.570679C27.5 0.575371 27.5 0.580091 27.5 0.584839C27.5 0.589588 27.5 0.594364 27.5 0.599169C27.5 0.603973 27.5 0.608806 27.5 0.613666C27.5 0.618527 27.5 0.623416 27.5 0.628332C27.5 0.633249 27.5 0.638194 27.5 0.643166C27.5 0.648139 27.5 0.65314 27.5 0.658168C27.5 0.663197 27.5 0.668253 27.5 0.673338C27.5 0.678422 27.5 0.683535 27.5 0.688675C27.5 0.693815 27.5 0.698984 27.5 0.70418C27.5 0.709376 27.5 0.7146 27.5 0.719851C27.5 0.725103 27.5 0.730383 27.5 0.73569C27.5 0.740998 27.5 0.746333 27.5 0.751696C27.5 0.757059 27.5 0.76245 27.5 0.767868C27.5 0.773287 27.5 0.778733 27.5 0.784207C27.5 0.789681 27.5 0.795182 27.5 0.800712C27.5 0.806241 27.5 0.811798 27.5 0.817383C27.5 0.822968 27.5 0.82858 27.5 0.83422C27.5 0.83986 27.5 0.845528 27.5 0.851223C27.5 0.856918 27.5 0.862641 27.5 0.868391C27.5 0.874142 27.5 0.87992 27.5 0.885725C27.5 0.891531 27.5 0.897364 27.5 0.903224C27.5 0.909085 27.5 0.914973 27.5 0.920888C27.5 0.926804 27.5 0.932747 27.5 0.938717C27.5 0.944688 27.5 0.950686 27.5 0.956711C27.5 0.962736 27.5 0.968789 27.5 0.974869C27.5 0.980949 27.5 0.987057 27.5 0.993192C27.5 0.999327 27.5 1.00549 27.5 1.01168C27.5 1.01787 27.5 1.02408 27.5 1.03033C27.5 1.03657 27.5 1.04284 27.5 1.04914C27.5 1.05544 27.5 1.06177 27.5 1.06812C27.5 1.07447 27.5 1.08086 27.5 1.08726C27.5 1.09367 27.5 1.10011 27.5 1.10657C27.5 1.11303 27.5 1.11952 27.5 1.12604C27.5 1.13255 27.5 1.1391 27.5 1.14567C27.5 1.15224 27.5 1.15883 27.5 1.16546C27.5 1.17208 27.5 1.17874 27.5 1.18542C27.5 1.19209 27.5 1.1988 27.5 1.20553C27.5 1.21227 27.5 1.21903 27.5 1.22581C27.5 1.2326 27.5 1.23942 27.5 1.24626C27.5 1.2531 27.5 1.25997 27.5 1.26686C27.5 1.27376 27.5 1.28068 27.5 1.28763C27.5 1.29458 27.5 1.30155 27.5 1.30855C27.5 1.31556 27.5 1.32259 27.5 1.32964C27.5 1.3367 27.5 1.34378 27.5 1.35089C27.5 1.358 27.5 1.36514 27.5 1.3723C27.5 1.37947 27.5 1.38666 27.5 1.39388C27.5 1.40109 27.5 1.40834 27.5 1.41561C27.5 1.42288 27.5 1.43018 27.5 1.4375C27.5 1.44482 27.5 1.45218 27.5 1.45955C27.5 1.46693 27.5 1.47433 27.5 1.48177C27.5 1.4892 27.5 1.49665 27.5 1.50414C27.5 1.51162 27.5 1.51913 27.5 1.52667C27.5 1.53421 27.5 1.54177 27.5 1.54936C27.5 1.55695 27.5 1.56457 27.5 1.57221C27.5 1.57986 27.5 1.58753 27.5 1.59522C27.5 1.60292 27.5 1.61064 27.5 1.61839C27.5 1.62614 27.5 1.63392 27.5 1.64172C27.5 1.64952 27.5 1.65735 27.5 1.66521C27.5 1.67306 27.5 1.68094 27.5 1.68885C27.5 1.69676 27.5 1.7047 27.5 1.71266C27.5 1.72062 27.5 1.7286 27.5 1.73662C27.5 1.74463 27.5 1.75267 27.5 1.76074C27.5 1.7688 27.5 1.7769 27.5 1.78501C27.5 1.79313 27.5 1.80128 27.5 1.80945C27.5 1.81762 27.5 1.82582 27.5 1.83404C27.5 1.84226 27.5 1.85051 27.5 1.85879C27.5 1.86707 27.5 1.87537 27.5 1.8837C27.5 1.89202 27.5 1.90038 27.5 1.90876C27.5 1.91714 27.5 1.92555 27.5 1.93398C27.5 1.94241 27.5 1.95087 27.5 1.95935C27.5 1.96784 27.5 1.97635 27.5 1.98489C27.5 1.99342 27.5 2.00199 27.5 2.01057C27.5 2.01916 27.5 2.02778 27.5 2.03642C27.5 2.04506 27.5 2.05373 27.5 2.06242C27.5 2.07111 27.5 2.07983 27.5 2.08857C27.5 2.09732 27.5 2.10609 27.5 2.11489C27.5 2.12368 27.5 2.1325 27.5 2.14135C27.5 2.1502 27.5 2.15907 27.5 2.16797C27.5 2.17687 27.5 2.1858 27.5 2.19475C27.5 2.2037 27.5 2.21268 27.5 2.22168C27.5 2.23068 27.5 2.23971 27.5 2.24877C27.5 2.25782 27.5 2.2669 27.5 2.27601C27.5 2.28511 27.5 2.29424 27.5 2.3034C27.5 2.31256 27.5 2.32174 27.5 2.33095C27.5 2.34015 27.5 2.34939 27.5 2.35865C27.5 2.36791 27.5 2.37719 27.5 2.3865C27.5 2.39581 27.5 2.40515 27.5 2.41451C27.5 2.42387 27.5 2.43326 27.5 2.44267C27.5 2.45209 27.5 2.46152 27.5 2.47099C27.5 2.48045 27.5 2.48994 27.5 2.49946C27.5 2.50897 27.5 2.51851 27.5 2.52808C27.5 2.53764 27.5 2.54723 27.5 2.55685C27.5 2.56647 27.5 2.57611 27.5 2.58577C27.5 2.59544 27.5 2.60513 27.5 2.61485C27.5 2.62457 27.5 2.63431 27.5 2.64408C27.5 2.65385 27.5 2.66364 27.5 2.67346C27.5 2.68328 27.5 2.69313 27.5 2.703C27.5 2.71286 27.5 2.72276 27.5 2.73268C27.5 2.7426 27.5 2.75254 27.5 2.76252C27.5 2.77249 27.5 2.78248 27.5 2.7925C27.5 2.80252 27.5 2.81257 27.5 2.82264C27.5 2.83271 27.5 2.84281 27.5 2.85293C27.5 2.86305 27.5 2.8732 27.5 2.88337C27.5 2.89354 27.5 2.90373 27.5 2.91396C27.5 2.92418 27.5 2.93442 27.5 2.9447C27.5 2.95497 27.5 2.96526 27.5 2.97559C27.5 2.98591 27.5 2.99625 27.5 3.00662C27.5 3.017 27.5 3.02739 27.5 3.03781C27.5 3.04824 27.5 3.05868 27.5 3.06915C27.5 3.07962 27.5 3.09012 27.5 3.10064C27.5 3.11116 27.5 3.12171 27.5 3.13228C27.5 3.14285 27.5 3.15344 27.5 3.16406C27.5 3.17468 27.5 3.18533 27.5 3.196C27.5 3.20667 27.5 3.21736 27.5 3.22808C27.5 3.2388 27.5 3.24954 27.5 3.26031C27.5 3.27108 27.5 3.28187 27.5 3.29269C27.5 3.30351 27.5 3.31435 27.5 3.32522C27.5 3.33609 27.5 3.34698 27.5 3.3579C27.5 3.36881 27.5 3.37975 27.5 3.39072C27.5 3.40169 27.5 3.41268 27.5 3.42369C27.5 3.43471 27.5 3.44575 27.5 3.45681C27.5 3.46787 27.5 3.47896 27.5 3.49008C27.5 3.50119 27.5 3.51233 27.5 3.52349C27.5 3.53465 27.5 3.54584 27.5 3.55705C27.5 3.56826 27.5 3.57949 27.5 3.59075C27.5 3.60201 27.5 3.6133 27.5 3.62461C27.5 3.63591 27.5 3.64725 27.5 3.6586C27.5 3.66996 27.5 3.68134 27.5 3.69275C27.5 3.70416 27.5 3.71559 27.5 3.72704C27.5 3.7385 27.5 3.74997 27.5 3.76148C27.5 3.77298 27.5 3.78451 27.5 3.79606C27.5 3.80761 27.5 3.81919 27.5 3.83079C27.5 3.84239 27.5 3.85401 27.5 3.86566C27.5 3.87731 27.5 3.88898 27.5 3.90068C27.5 3.91237 27.5 3.92409 27.5 3.93584C27.5 3.94758 27.5 3.95935 27.5 3.97115C27.5 3.98294 27.5 3.99476 27.5 4.0066C27.5 4.01844 27.5 4.0303 27.5 4.04219C27.5 4.05408 27.5 4.066 27.5 4.07793C27.5 4.08987 27.5 4.10183 27.5 4.11382C27.5 4.1258 27.5 4.13781 27.5 4.14985C27.5 4.16188 27.5 4.17394 27.5 4.18602C27.5 4.1981 27.5 4.2102 27.5 4.22233C27.5 4.23446 27.5 4.24661 27.5 4.25879C27.5 4.27097 27.5 4.28317 27.5 4.29539C27.5 4.30762 27.5 4.31986 27.5 4.33213C27.5 4.34441 27.5 4.3567 27.5 4.36902C27.5 4.38134 27.5 4.39368 27.5 4.40605C27.5 4.41842 27.5 4.43081 27.5 4.44322C27.5 4.45564 27.5 4.46807 27.5 4.48054C27.5 4.493 27.5 4.50548 27.5 4.51799C27.5 4.5305 27.5 4.54303 27.5 4.55559C27.5 4.56814 27.5 4.58072 27.5 4.59333C27.5 4.60593 27.5 4.61856 27.5 4.63121C27.5 4.64386 27.5 4.65653 27.5 4.66923C27.5 4.68193 27.5 4.69465 27.5 4.70739C27.5 4.72014 27.5 4.7329 27.5 4.7457C27.5 4.75849 27.5 4.7713 27.5 4.78414C27.5 4.79698 27.5 4.80984 27.5 4.82273C27.5 4.83561 27.5 4.84852 27.5 4.86145C27.5 4.87438 27.5 4.88734 27.5 4.90032C27.5 4.9133 27.5 4.9263 27.5 4.93932C27.5 4.95235 27.5 4.9654 27.5 4.97847C27.5 4.99154 27.5 5.00463 27.5 5.01775C27.5 5.03087 27.5 5.04401 27.5 5.05718C27.5 5.07034 27.5 5.08353 27.5 5.09674C27.5 5.10995 27.5 5.12319 27.5 5.13644C27.5 5.1497 27.5 5.16298 27.5 5.17629C27.5 5.18959 27.5 5.20292 27.5 5.21627C27.5 5.22962 27.5 5.24299 27.5 5.25639C27.5 5.26978 27.5 5.2832 27.5 5.29664C27.5 5.31009 27.5 5.32355 27.5 5.33704C27.5 5.35053 27.5 5.36404 27.5 5.37757C27.5 5.39111 27.5 5.40466 27.5 5.41824C27.5 5.43182 27.5 5.44543 27.5 5.45905C27.5 5.47268 27.5 5.48633 27.5 5.5C27.5 5.51367 27.5 5.52737 27.5 5.54109C27.5 5.5548 27.5 5.56854 27.5 5.58231C27.5 5.59607 27.5 5.60986 27.5 5.62366C27.5 5.63747 27.5 5.65131 27.5 5.66516C27.5 5.67901 27.5 5.69289 27.5 5.70679C27.5 5.72069 27.5 5.73461 27.5 5.74856C27.5 5.76251 27.5 5.77647 27.5 5.79046C27.5 5.80446 27.5 5.81847 27.5 5.83251C27.5 5.84654 27.5 5.8606 27.5 5.87468C27.5 5.88876 27.5 5.90287 27.5 5.91699C27.5 5.93112 27.5 5.94527 27.5 5.95944C27.5 5.97361 27.5 5.98781 27.5 6.00202C27.5 6.01624 27.5 6.03048 27.5 6.04474C27.5 6.059 27.5 6.07329 27.5 6.0876C27.5 6.1019 27.5 6.11623 27.5 6.13058C27.5 6.14494 27.5 6.15931 27.5 6.17371C27.5 6.1881 27.5 6.20252 27.5 6.21696C27.5 6.23141 27.5 6.24587 27.5 6.26036C27.5 6.27484 27.5 6.28935 27.5 6.30388C27.5 6.31841 27.5 6.33297 27.5 6.34754C27.5 6.36212 27.5 6.37671 27.5 6.39133C27.5 6.40595 27.5 6.4206 27.5 6.43526C27.5 6.44993 27.5 6.46461 27.5 6.47932C27.5 6.49403 27.5 6.50876 27.5 6.52351C27.5 6.53827 27.5 6.55304 27.5 6.56784C27.5 6.58264 27.5 6.59746 27.5 6.6123C27.5 6.62714 27.5 6.64201 27.5 6.65689C27.5 6.67178 27.5 6.68669 27.5 6.70162C27.5 6.71655 27.5 6.7315 27.5 6.74647C27.5 6.76145 27.5 6.77644 27.5 6.79146C27.5 6.80648 27.5 6.82152 27.5 6.83658C27.5 6.85165 27.5 6.86673 27.5 6.88184C27.5 6.89694 27.5 6.91207 27.5 6.92722C27.5 6.94237 27.5 6.95754 27.5 6.97274C27.5 6.98793 27.5 7.00315 27.5 7.01838C27.5 7.03362 27.5 7.04888 27.5 7.06416C27.5 7.07944 27.5 7.09475 27.5 7.11007C27.5 7.1254 27.5 7.14074 27.5 7.15611C27.5 7.17148 27.5 7.18687 27.5 7.20228C27.5 7.21769 27.5 7.23313 27.5 7.24858C27.5 7.26404 27.5 7.27951 27.5 7.29501C27.5 7.31051 27.5 7.32603 27.5 7.34157C27.5 7.35712 27.5 7.37268 27.5 7.38826C27.5 7.40385 27.5 7.41946 27.5 7.43508C27.5 7.45071 27.5 7.46636 27.5 7.48203C27.5 7.49771 27.5 7.5134 27.5 7.52911C27.5 7.54483 27.5 7.56056 27.5 7.57632C27.5 7.59208 27.5 7.60786 27.5 7.62366C27.5 7.63946 27.5 7.65528 27.5 7.67112C27.5 7.68697 27.5 7.70283 27.5 7.71872C27.5 7.7346 27.5 7.75051 27.5 7.76644C27.5 7.78237 27.5 7.79832 27.5 7.81429C27.5 7.83026 27.5 7.84626 27.5 7.86227C27.5 7.87829 27.5 7.89432 27.5 7.91038C27.5 7.92643 27.5 7.94251 27.5 7.95861C27.5 7.97471 27.5 7.99083 27.5 8.00697C27.5 8.02312 27.5 8.03928 27.5 8.05546C27.5 8.07165 27.5 8.08785 27.5 8.10408C27.5 8.12031 27.5 8.13655 27.5 8.15282C27.5 8.16909 27.5 8.18538 27.5 8.20169C27.5 8.218 27.5 8.23434 27.5 8.25069C27.5 8.26704 27.5 8.28342 27.5 8.29981C27.5 8.31621 27.5 8.33263 27.5 8.34906C27.5 8.3655 27.5 8.38196 27.5 8.39844C27.5 8.41492 27.5 8.43142 27.5 8.44794C27.5 8.46446 27.5 8.481 27.5 8.49757C27.5 8.51413 27.5 8.53071 27.5 8.54732C27.5 8.56392 27.5 8.58055 27.5 8.5972C27.5 8.61384 27.5 8.63051 27.5 8.6472C27.5 8.66389 27.5 8.6806 27.5 8.69733C27.5 8.71406 27.5 8.73081 27.5 8.74758C27.5 8.76435 27.5 8.78115 27.5 8.79796C27.5 8.81477 27.5 8.83161 27.5 8.84846C27.5 8.86532 27.5 8.88219 27.5 8.89909C27.5 8.91598 27.5 8.9329 27.5 8.94984C27.5 8.96678 27.5 8.98373 27.5 9.00071C27.5 9.01769 27.5 9.03469 27.5 9.05171C27.5 9.06873 27.5 9.08577 27.5 9.10283C27.5 9.11989 27.5 9.13698 27.5 9.15408C27.5 9.17118 27.5 9.1883 27.5 9.20545C27.5 9.22259 27.5 9.23975 27.5 9.25694C27.5 9.27412 27.5 9.29133 27.5 9.30855C27.5 9.32578 27.5 9.34302 27.5 9.36029C27.5 9.37755 27.5 9.39484 27.5 9.41215C27.5 9.42945 27.5 9.44678 27.5 9.46413C27.5 9.48148 27.5 9.49884 27.5 9.51623C27.5 9.53362 27.5 9.55103 27.5 9.56846C27.5 9.58589 27.5 9.60334 27.5 9.62081C27.5 9.63827 27.5 9.65576 27.5 9.67327C27.5 9.69078 27.5 9.70831 27.5 9.72586C27.5 9.74341 27.5 9.76099 27.5 9.77858C27.5 9.79617 27.5 9.81378 27.5 9.83141C27.5 9.84904 27.5 9.86669 27.5 9.88436C27.5 9.90203 27.5 9.91973 27.5 9.93744C27.5 9.95515 27.5 9.97288 27.5 9.99063C27.5 10.0084 27.5 10.0262 27.5 10.0439C27.5 10.0617 27.5 10.0796 27.5 10.0974C27.5 10.1152 27.5 10.1331 27.5 10.1509C27.5 10.1688 27.5 10.1867 27.5 10.2046C27.5 10.2225 27.5 10.2405 27.5 10.2584C27.5 10.2764 27.5 10.2943 27.5 10.3123C27.5 10.3303 27.5 10.3483 27.5 10.3664C27.5 10.3844 27.5 10.4024 27.5 10.4205C27.5 10.4386 27.5 10.4567 27.5 10.4748C27.5 10.4929 27.5 10.511 27.5 10.5292C27.5 10.5473 27.5 10.5655 27.5 10.5837C27.5 10.6019 27.5 10.6201 27.5 10.6383C27.5 10.6565 27.5 10.6748 27.5 10.693C27.5 10.7113 27.5 10.7296 27.5 10.7479C27.5 10.7662 27.5 10.7845 27.5 10.8029C27.5 10.8212 27.5 10.8396 27.5 10.858C27.5 10.8764 27.5 10.8948 27.5 10.9132C27.5 10.9316 27.5 10.9501 27.5 10.9685C27.5 10.987 27.5 11.0055 27.5 11.024C27.5 11.0425 27.5 11.061 27.5 11.0796C27.5 11.0981 27.5 11.1167 27.5 11.1352C27.5 11.1538 27.5 11.1724 27.5 11.191C27.5 11.2097 27.5 11.2283 27.5 11.247C27.5 11.2656 27.5 11.2843 27.5 11.303C27.5 11.3217 27.5 11.3404 27.5 11.3591C27.5 11.3779 27.5 11.3966 27.5 11.4154C27.5 11.4342 27.5 11.453 27.5 11.4718C27.5 11.4906 27.5 11.5094 27.5 11.5283C27.5 11.5471 27.5 11.566 27.5 11.5849C27.5 11.6038 27.5 11.6227 27.5 11.6416C27.5 11.6606 27.5 11.6795 27.5 11.6985C27.5 11.7174 27.5 11.7364 27.5 11.7554C27.5 11.7744 27.5 11.7935 27.5 11.8125C27.5 11.8315 27.5 11.8506 27.5 11.8697C27.5 11.8888 27.5 11.9079 27.5 11.927C27.5 11.9461 27.5 11.9652 27.5 11.9844C27.5 12.0036 27.5 12.0227 27.5 12.0419C27.5 12.0611 27.5 12.0803 27.5 12.0996C27.5 12.1188 27.5 12.1381 27.5 12.1573C27.5 12.1766 27.5 12.1959 27.5 12.2152C27.5 12.2345 27.5 12.2538 27.5 12.2732C27.5 12.2925 27.5 12.3119 27.5 12.3313C27.5 12.3507 27.5 12.3701 27.5 12.3895C27.5 12.4089 27.5 12.4283 27.5 12.4478C27.5 12.4673 27.5 12.4867 27.5 12.5062C27.5 12.5257 27.5 12.5452 27.5 12.5648C27.5 12.5843 27.5 12.6039 27.5 12.6234C27.5 12.643 27.5 12.6626 27.5 12.6822C27.5 12.7018 27.5 12.7214 27.5 12.7411C27.5 12.7607 27.5 12.7804 27.5 12.8001C27.5 12.8198 27.5 12.8395 27.5 12.8592C27.5 12.8789 27.5 12.8986 27.5 12.9184C27.5 12.9382 27.5 12.9579 27.5 12.9777C27.5 12.9975 27.5 13.0173 27.5 13.0372C27.5 13.057 27.5 13.0768 27.5 13.0967C27.5 13.1166 27.5 13.1365 27.5 13.1564C27.5 13.1763 27.5 13.1962 27.5 13.2161C27.5 13.2361 27.5 13.256 27.5 13.276C27.5 13.296 27.5 13.316 27.5 13.336C27.5 13.356 27.5 13.3761 27.5 13.3961C27.5 13.4162 27.5 13.4362 27.5 13.4563C27.5 13.4764 27.5 13.4965 27.5 13.5166C27.5 13.5368 27.5 13.5569 27.5 13.5771C27.5 13.5972 27.5 13.6174 27.5 13.6376C27.5 13.6578 27.5 13.678 27.5 13.6982C27.5 13.7185 27.5 13.7387 27.5 13.759C27.5 13.7793 27.5 13.7996 27.5 13.8199C27.5 13.8402 27.5 13.8605 27.5 13.8808C27.5 13.9012 27.5 13.9215 27.5 13.9419C27.5 13.9623 27.5 13.9827 27.5 14.0031C27.5 14.0235 27.5 14.0439 27.5 14.0644C27.5 14.0848 27.5 14.1053 27.5 14.1258C27.5 14.1463 27.5 14.1668 27.5 14.1873C27.5 14.2078 27.5 14.2284 27.5 14.2489C27.5 14.2695 27.5 14.2901 27.5 14.3106C27.5 14.3312 27.5 14.3518 27.5 14.3725C27.5 14.3931 27.5 14.4137 27.5 14.4344C27.5 14.4551 27.5 14.4758 27.5 14.4965C27.5 14.5172 27.5 14.5379 27.5 14.5586C27.5 14.5793 27.5 14.6001 27.5 14.6209C27.5 14.6416 27.5 14.6624 27.5 14.6832C27.5 14.704 27.5 14.7249 27.5 14.7457C27.5 14.7665 27.5 14.7874 27.5 14.8083C27.5 14.8291 27.5 14.85 27.5 14.871C27.5 14.8919 27.5 14.9128 27.5 14.9337C27.5 14.9547 27.5 14.9756 27.5 14.9966C27.5 15.0176 27.5 15.0386 27.5 15.0596C27.5 15.0806 27.5 15.1017 27.5 15.1227C27.5 15.1438 27.5 15.1648 27.5 15.1859C27.5 15.207 27.5 15.2281 27.5 15.2492C27.5 15.2704 27.5 15.2915 27.5 15.3127C27.5 15.3338 27.5 15.355 27.5 15.3762C27.5 15.3974 27.5 15.4186 27.5 15.4398C27.5 15.461 27.5 15.4823 27.5 15.5035C27.5 15.5248 27.5 15.5461 27.5 15.5673C27.5 15.5886 27.5 15.61 27.5 15.6313C27.5 15.6526 27.5 15.674 27.5 15.6953C27.5 15.7167 27.5 15.7381 27.5 15.7595C27.5 15.7808 27.5 15.8023 27.5 15.8237C27.5 15.8451 27.5 15.8666 27.5 15.888C27.5 15.9095 27.5 15.931 27.5 15.9525C27.5 15.974 27.5 15.9955 27.5 16.017C27.5 16.0386 27.5 16.0601 27.5 16.0817C27.5 16.1033 27.5 16.1248 27.5 16.1464C27.5 16.168 27.5 16.1897 27.5 16.2113C27.5 16.2329 27.5 16.2546 27.5 16.2762C27.5 16.2979 27.5 16.3196 27.5 16.3413C27.5 16.363 27.5 16.3847 27.5 16.4065C27.5 16.4282 27.5 16.45 27.5 16.4717C27.5 16.4935 27.5 16.5153 27.5 16.5371C27.5 16.5589 27.5 16.5807 27.5 16.6025C27.5 16.6244 27.5 16.6462 27.5 16.6681C27.5 16.69 27.5 16.7119 27.5 16.7338C27.5 16.7557 27.5 16.7776 27.5 16.7995C27.5 16.8215 27.5 16.8434 27.5 16.8654C27.5 16.8874 27.5 16.9093 27.5 16.9314C27.5 16.9534 27.5 16.9754 27.5 16.9974C27.5 17.0195 27.5 17.0415 27.5 17.0636C27.5 17.0856 27.5 17.1077 27.5 17.1298C27.5 17.1519 27.5 17.1741 27.5 17.1962C27.5 17.2183 27.5 17.2405 27.5 17.2627C27.5 17.2848 27.5 17.307 27.5 17.3292C27.5 17.3514 27.5 17.3736 27.5 17.3959C27.5 17.4181 27.5 17.4403 27.5 17.4626C27.5 17.4849 27.5 17.5072 27.5 17.5295C27.5 17.5518 27.5 17.5741 27.5 17.5964C27.5 17.6188 27.5 17.6411 27.5 17.6635C27.5 17.6858 27.5 17.7082 27.5 17.7306C27.5 17.753 27.5 17.7754 27.5 17.7979C27.5 17.8203 27.5 17.8427 27.5 17.8652C27.5 17.8877 27.5 17.9101 27.5 17.9326C27.5 17.9551 27.5 17.9776 27.5 18.0002C27.5 18.0227 27.5 18.0452 27.5 18.0678C27.5 18.0904 27.5 18.1129 27.5 18.1355C27.5 18.1581 27.5 18.1807 27.5 18.2033C27.5 18.226 27.5 18.2486 27.5 18.2713C27.5 18.2939 27.5 18.3166 27.5 18.3393C27.5 18.362 27.5 18.3847 27.5 18.4074C27.5 18.4301 27.5 18.4528 27.5 18.4756C27.5 18.4984 27.5 18.5211 27.5 18.5439C27.5 18.5667 27.5 18.5895 27.5 18.6123C27.5 18.6351 27.5 18.6579 27.5 18.6808C27.5 18.7036 27.5 18.7265 27.5 18.7494C27.5 18.7723 27.5 18.7952 27.5 18.8181C27.5 18.841 27.5 18.8639 27.5 18.8868C27.5 18.9098 27.5 18.9327 27.5 18.9557C27.5 18.9787 27.5 19.0017 27.5 19.0247C27.5 19.0477 27.5 19.0707 27.5 19.0937C27.5 19.1168 27.5 19.1398 27.5 19.1629C27.5 19.186 27.5 19.209 27.5 19.2321C27.5 19.2552 27.5 19.2784 27.5 19.3015C27.5 19.3246 27.5 19.3478 27.5 19.3709C27.5 19.3941 27.5 19.4173 27.5 19.4404C27.5 19.4636 27.5 19.4868 27.5 19.5101C27.5 19.5333 27.5 19.5565 27.5 19.5798C27.5 19.603 27.5 19.6263 27.5 19.6496C27.5 19.6729 27.5 19.6962 27.5 19.7195C27.5 19.7428 27.5 19.7661 27.5 19.7895C27.5 19.8128 27.5 19.8362 27.5 19.8596C27.5 19.8829 27.5 19.9063 27.5 19.9297C27.5 19.9531 27.5 19.9766 27.5 20H28.5ZM0 32.5H32V31.5H0V32.5Z" fill="black"/>
</svg>
