<svg width="34" height="34" viewBox="0 0 34 34" fill="none" xmlns="http://www.w3.org/2000/svg">
<path d="M11.3005 18.27C12.5821 12.2724 15.2623 10.8686 19.224 10.0462C24.7705 8.89485 36.6558 20.7371 31.9017 29.7833C29.9784 33.4429 25.2059 34.6585 19.224 29.7833" stroke="black"/>
<path d="M11.3005 18.27C12.5821 12.2724 15.2623 10.8686 19.224 10.0462C24.7705 8.89485 36.6558 20.7371 31.9017 29.7833C29.9784 33.4429 25.2059 34.6585 19.224 29.7833" stroke="black"/>
<path d="M22.9065 16.3302C21.4701 22.2899 18.7544 23.6183 14.7728 24.3298C9.19849 25.326 -2.37564 13.1563 2.61113 4.24603C4.62851 0.641422 9.43082 -0.44054 15.2842 4.59988" stroke="black"/>
</svg>
